<svg xmlns="http://www.w3.org/2000/svg" viewBox="0 0 392 280" role="img" aria-label="SB Celebration's crest">
  <title>SB Celebration's crest</title>
  <defs>
    <linearGradient id="gold" x1="0%" y1="0%" x2="100%" y2="100%">
      <stop offset="0%" stop-color="#F9E498"/>
      <stop offset="45%" stop-color="#D4AF37"/>
      <stop offset="100%" stop-color="#8B6E32"/>
    </linearGradient>
  </defs>
  <path d="M 7.980 54.431 C 7.968 83.619, 7.686 164.087, 7.351 233.250 L 6.744 359 195.265 359 C 366.249 359, 383.842 358.853, 384.393 357.418 C 385.298 355.060, 385.097 3.701, 384.190 2.273 C 383.577 1.309, 361.406 1.220, 280.455 1.859 L 177.500 2.672 274.500 3.068 C 327.850 3.286, 359.913 3.593, 345.750 3.749 L 320 4.034 320 6.910 C 320 8.610, 320.647 10.034, 321.582 10.393 C 322.452 10.727, 330.093 11, 338.563 11 C 353.701 11, 353.971 11.038, 354.518 13.250 C 354.823 14.487, 354.944 22.250, 354.787 30.500 L 354.500 45.500 347.521 45.801 C 336.070 46.295, 336 46.244, 336 37.481 L 336 30 328 30 L 320 30 320 46 L 320 62 312 62 C 307.333 62, 304 62.417, 304 63 C 304 64.590, 299.998 64.158, 299.362 62.500 C 298.574 60.447, 287 60.325, 287 62.370 C 287 63.256, 288.621 63.923, 291.587 64.257 C 297.728 64.949, 299.018 66.374, 295.360 68.423 L 292.500 70.026 298 69.763 L 303.500 69.500 303.819 73.390 C 304.276 78.967, 305.777 80, 313.429 80 L 320 80 320 72 L 320 64 327.417 64 C 332.414 64, 334.998 63.592, 335.338 62.750 C 335.615 62.063, 335.884 68.700, 335.935 77.500 C 335.986 86.300, 336.299 94.513, 336.630 95.750 C 337.113 97.550, 336.821 98, 335.176 98 C 334.044 98, 332.840 97.550, 332.500 97 C 331.866 95.974, 327 95.568, 327 96.540 C 327 96.838, 327.981 98.407, 329.179 100.028 C 330.377 101.649, 331.052 103.281, 330.679 103.654 C 330.306 104.028, 330 103.808, 330 103.167 C 330 102.447, 328.242 102, 325.417 102 C 319.670 102, 319.874 103.930, 325.822 105.845 C 329.056 106.886, 330 107.688, 330 109.395 C 330 112.973, 332.014 114.286, 334.358 112.236 C 335.766 111.006, 336.080 110.937, 335.437 112 C 334.476 113.590, 334.324 114.112, 334.125 116.500 C 334.056 117.325, 333.155 118, 332.122 118 C 330.183 118, 327.813 120.139, 328.083 121.645 C 328.557 124.283, 327.865 129.034, 327.078 128.548 C 326.564 128.231, 326.406 124.667, 326.721 120.505 L 327.286 113.032 323.448 109.516 C 320.560 106.871, 318.729 106.001, 316.055 106.004 C 312.019 106.008, 306.661 108.896, 305.029 111.946 C 304.401 113.120, 302.926 114, 301.590 114 C 299.430 114, 299.598 113.616, 303.786 109 C 306.281 106.250, 308.724 104, 309.216 104 C 309.707 104, 312.097 103.095, 314.526 101.988 C 319.164 99.875, 321.850 96.643, 319.946 95.467 C 318.290 94.443, 314 95.879, 314 97.456 C 314 98.518, 313.122 98.732, 310.500 98.306 C 307.417 97.806, 307 97.992, 307 99.869 C 307 102.654, 304.119 102.668, 300.600 99.900 C 299.132 98.745, 296.135 97.560, 293.941 97.265 C 291.747 96.971, 289.711 96.341, 289.417 95.865 C 288.587 94.522, 283.836 94.846, 282.079 96.365 C 281.210 97.115, 278.712 98.003, 276.527 98.338 L 272.554 98.947 275.433 96.473 C 277.016 95.113, 279.345 94, 280.608 94 C 281.872 94, 284.060 93.474, 285.470 92.832 C 287.638 91.844, 288.238 91.944, 289.361 93.479 C 290.427 94.937, 291.605 95.192, 295.330 94.772 C 297.883 94.484, 301.103 93.508, 302.486 92.601 C 307.766 89.141, 304.559 78.409, 297.090 74.546 C 293.552 72.717, 281.041 71.721, 279.340 73.133 C 277.883 74.342, 275.676 73.333, 276.580 71.871 C 277.551 70.299, 274.975 65.127, 272.892 64.466 C 271.852 64.136, 271 63.446, 271 62.933 C 271 61.283, 268.582 62.004, 265.500 64.571 C 262.716 66.891, 262.626 67.166, 264.250 68.395 C 267.009 70.484, 266.325 71.076, 261.958 70.377 C 258.582 69.837, 257.510 70.112, 255.458 72.040 C 254.106 73.310, 253 75.144, 253 76.115 C 253 79.107, 251.421 79.060, 249.159 76.001 C 246.798 72.808, 246.288 67.558, 248.222 66.363 C 248.894 65.947, 251.168 65.732, 253.275 65.884 C 255.595 66.051, 258.117 65.498, 259.669 64.481 C 262.010 62.948, 262.192 62.335, 261.783 57.393 C 261.212 50.506, 258.566 47.502, 251.792 46.049 C 247.504 45.129, 246.203 45.259, 242.276 46.996 C 238.172 48.812, 237.614 48.854, 236.574 47.432 C 235.066 45.370, 230.498 46.452, 228.466 49.352 C 227.309 51.003, 225.869 51.499, 221.989 51.579 C 217.534 51.671, 217 51.455, 217 49.553 C 217 48.383, 218.332 45.866, 219.959 43.962 C 221.587 42.058, 222.937 39.557, 222.959 38.405 C 222.997 36.460, 225.794 33, 227.329 33 C 228.742 33, 227.913 36.717, 226.053 38.712 C 223.811 41.119, 222.947 46.095, 224.665 46.700 C 225.306 46.926, 226.155 46.073, 226.553 44.805 C 226.950 43.537, 228.113 41.427, 229.138 40.115 C 231.628 36.926, 231.600 32.390, 229.085 31.732 C 228.028 31.456, 227.019 30.171, 226.835 28.866 C 226.356 25.480, 222.303 25.325, 215.719 28.440 C 212.742 29.848, 209.950 31, 209.514 31 C 207.920 31, 206.063 27.418, 206.032 24.285 C 205.982 19.260, 202.964 18.207, 196.838 21.076 C 191.412 23.617, 189.898 26.573, 192.005 30.510 C 192.698 31.805, 192.949 33.683, 192.561 34.683 C 191.893 36.407, 191.792 36.411, 190.568 34.750 C 189.859 33.787, 188.718 33, 188.033 33 C 187.227 33, 187.051 32.381, 187.534 31.250 C 189.453 26.765, 189.127 24.289, 186.013 19.675 C 184.275 17.099, 181.986 14.528, 180.926 13.961 C 179.867 13.394, 178.993 12.158, 178.984 11.215 C 178.975 10.272, 177.962 7.737, 176.734 5.583 L 174.500 1.665 91.250 1.514 L 8 1.362 7.980 54.431 M 9 59.122 C 9 105.959, 9.222 115.061, 10.342 114.131 C 11.080 113.519, 11.963 113.297, 12.305 113.638 C 12.646 113.979, 13.472 113.058, 14.141 111.591 C 14.887 109.953, 15.898 109.131, 16.760 109.461 C 17.532 109.758, 19.702 110, 21.582 110 C 25.363 110, 25.727 110.676, 23.500 113.559 C 22.080 115.397, 21.928 115.407, 20.640 113.750 C 19.892 112.788, 18.767 112, 18.140 112 C 16.736 112, 16.623 115.649, 18 116.500 C 19.986 117.727, 19.087 120.662, 16.750 120.579 C 15.019 120.518, 14.428 121.129, 14.186 123.227 C 13.941 125.356, 13.392 125.904, 11.686 125.727 C 9.500 125.500, 9.500 125.503, 9.340 148 C 9.251 160.375, 9.489 169.408, 9.867 168.074 C 10.814 164.736, 12.874 164.206, 12.252 167.460 C 11.967 168.953, 12.227 170, 12.883 170 C 13.498 170, 14 168.650, 14 167 C 14 165.350, 14.450 164, 15 164 C 15.550 164, 15.934 163.662, 15.853 163.250 C 15.573 161.822, 17.215 154.270, 18.106 152.888 C 18.860 151.718, 19.154 151.735, 19.985 153 C 20.526 153.825, 20.976 155.682, 20.985 157.128 C 20.993 158.573, 21.675 160.315, 22.500 161 C 24.595 162.739, 24.373 163.915, 21.750 164.969 C 20.512 165.466, 20.063 165.902, 20.750 165.937 C 21.524 165.976, 22 167.476, 22 169.879 C 22 173.246, 21.604 173.921, 19 175 C 15.686 176.373, 15.187 178.330, 17.551 180.693 C 18.951 182.094, 19.226 182.073, 20.398 180.470 C 22.060 178.198, 22.896 179.620, 22.279 183.671 C 21.825 186.654, 21.595 186.809, 18.398 186.290 C 15.352 185.795, 14.988 185.985, 14.884 188.119 C 14.801 189.814, 14.636 189.996, 14.311 188.750 C 14.059 187.787, 13.436 187, 12.927 187 C 12.417 187, 12 185.875, 12 184.500 C 12 181.885, 13.470 181.099, 14.338 183.250 C 14.615 183.938, 14.878 183.537, 14.921 182.361 C 14.964 181.184, 14.109 179.159, 13.020 177.861 C 10.019 174.282, 9.033 176.839, 9.015 188.250 L 9 198 12 198 C 14 198, 15 197.500, 15 196.500 C 15 192.969, 16.784 195.405, 17.380 199.750 C 17.901 203.546, 17.697 204.745, 16.363 205.722 C 15.375 206.445, 14.730 208.222, 14.783 210.075 C 14.892 213.919, 15.521 214.643, 17.397 213.085 C 18.527 212.148, 19.312 212.171, 20.983 213.193 C 22.818 214.314, 23.306 214.251, 24.421 212.750 C 27.132 209.099, 30 211.167, 30 216.773 C 30 219.059, 30.155 219.181, 31.250 217.760 C 32.455 216.197, 34.111 215.631, 36.750 215.882 C 38.829 216.079, 38.188 217.462, 34.165 221.461 C 31.317 224.292, 30.446 225.882, 30.781 227.637 C 31.339 230.555, 32.709 230.641, 35.079 227.908 L 36.893 225.817 40.447 228.527 C 42.401 230.018, 44 231.388, 44 231.572 C 44 231.756, 41.942 232.817, 39.426 233.930 C 36.902 235.046, 35.136 236.411, 35.485 236.976 C 35.833 237.539, 35.431 238, 34.590 238 C 33.750 238, 33.200 237.437, 33.367 236.750 C 33.535 236.063, 33.483 235.838, 33.253 236.250 C 32.286 237.979, 31.048 236.771, 30.434 233.500 L 29.777 230 19.389 230 C 13.130 230, 9 230.398, 9 231 C 9 231.550, 10.800 232, 13 232 C 15.200 232, 17 232.450, 17 233 C 17 233.562, 19.797 234, 23.392 234 C 29.525 234, 29.811 234.111, 30.471 236.740 C 30.849 238.247, 31.685 239.830, 32.329 240.258 C 33.165 240.814, 32.999 241.332, 31.750 242.068 C 29.580 243.347, 29.384 248, 31.500 248 C 32.325 248, 33 248.726, 33 249.613 C 33 250.837, 33.724 251.121, 36 250.787 C 38.399 250.435, 39 250.712, 39 252.173 C 39 253.455, 39.746 254, 41.500 254 C 43.333 254, 44 254.533, 44 256 C 44 257.467, 43.333 258, 41.500 258 C 40.125 258, 39 257.550, 39 257 C 39 256.450, 37.650 256, 36 256 C 33.075 256, 33 256.123, 33 260.893 C 33 263.914, 33.478 265.949, 34.250 266.212 C 34.938 266.446, 38.538 266.511, 42.250 266.357 C 48.771 266.087, 49 266.158, 49 268.457 C 49 273.533, 49.725 274, 57.607 274 C 62.198 274, 65 273.594, 65 272.929 C 65 272.339, 65.675 272.532, 66.500 273.357 C 68.327 275.185, 68.420 276.664, 66.750 277.338 C 66.063 277.615, 66.737 277.878, 68.250 277.921 C 70.721 277.992, 72.411 280, 70 280 C 69.450 280, 69 280.450, 69 281 C 69 283.101, 72.866 281.976, 73.294 279.750 L 73.728 277.500 73.864 279.750 C 73.979 281.646, 74.572 282, 77.640 282 C 79.738 282, 81.750 282.642, 82.390 283.516 C 83.727 285.342, 95.668 286.098, 96.784 284.427 C 97.178 283.837, 98.287 283.064, 99.250 282.708 C 100.669 282.185, 101 282.625, 101 285.031 C 101 286.751, 100.470 288, 99.741 288 C 99.048 288, 97.914 288.908, 97.221 290.017 C 96.107 291.802, 96.252 292.145, 98.481 292.993 C 100.028 293.581, 101 294.732, 101 295.975 C 101 298.640, 99.849 298.532, 97.102 295.609 C 95.249 293.636, 93.600 293.136, 87.678 292.750 C 80.209 292.263, 71 293.659, 71 295.279 C 71 295.815, 71.747 295.864, 72.750 295.396 C 73.713 294.945, 78.100 294.424, 82.500 294.236 L 90.500 293.894 94.500 297.914 C 96.700 300.125, 99.486 301.949, 100.691 301.967 C 101.896 301.985, 103.167 302.461, 103.515 303.025 C 103.895 303.640, 106.034 303.799, 108.868 303.423 C 112.526 302.938, 113.886 303.157, 114.916 304.399 C 117.422 307.419, 118.174 306.139, 117.500 300 C 116.864 294.209, 116.922 293.997, 119.171 293.926 C 120.452 293.885, 122.571 293.654, 123.881 293.412 C 127.471 292.750, 128.677 294.426, 129.435 301.132 L 130.125 307.231 132.377 305.115 C 134.928 302.719, 143.708 302.108, 145.783 304.183 C 147.582 305.982, 148.091 304.710, 146.885 301.434 C 146.115 299.342, 146.112 297.711, 146.878 295.750 C 147.771 293.460, 148.551 293, 151.541 293 C 156.828 293, 158.728 294.430, 159.498 298.987 C 160.160 302.905, 160.272 303, 164.259 303 C 166.597 303, 169.097 303.683, 170.108 304.598 C 171.079 305.477, 172.352 305.900, 172.937 305.539 C 174.281 304.708, 174.324 301.318, 173 300.500 C 171.476 299.558, 171.808 297.989, 173.401 298.601 C 174.172 298.896, 175.037 300.032, 175.322 301.124 C 175.775 302.856, 176.599 303.083, 181.760 302.897 C 185.015 302.780, 188.237 303.028, 188.918 303.450 C 189.600 303.871, 192.124 303.665, 194.528 302.992 C 197.651 302.118, 199.739 302.062, 201.846 302.796 C 204.445 303.703, 205.102 303.503, 207.397 301.107 C 210.514 297.855, 210.646 297, 208.035 297 C 206.955 297, 205.589 296.100, 205 295 C 204.411 293.900, 203.282 293, 202.490 293 C 201.357 293, 201.258 293.548, 202.025 295.565 C 203.405 299.195, 203.234 300.702, 201.682 298.580 C 200.448 296.892, 200.259 296.884, 198.682 298.461 C 197.441 299.702, 196.970 299.797, 196.885 298.821 C 196.486 294.247, 198.218 290.763, 200.461 291.623 C 201.241 291.923, 202.327 290.882, 203.132 289.064 C 204.866 285.146, 206.128 285.110, 205.350 289 C 204.887 291.313, 205.109 292, 206.318 292 C 207.181 292, 208.540 292.933, 209.339 294.073 C 210.329 295.487, 211.018 295.779, 211.505 294.992 C 211.897 294.357, 213.549 293.029, 215.175 292.040 C 219.021 289.701, 225.653 290.945, 228.307 294.504 C 229.766 296.461, 230.697 296.811, 233.145 296.321 C 235.900 295.770, 236.146 295.932, 235.838 298.098 C 235.637 299.516, 234.378 301.017, 232.730 301.805 C 231.207 302.532, 230.216 303.540, 230.527 304.043 C 230.857 304.578, 232.009 304.487, 233.296 303.823 C 238.476 301.154, 239.224 300.936, 241.134 301.543 C 242.386 301.940, 243.870 301.523, 245.072 300.435 C 246.830 298.844, 247 298.836, 247 300.345 C 247 301.255, 247.620 302, 248.378 302 C 249.135 302, 250.325 302.686, 251.021 303.525 C 252.155 304.892, 252.462 304.892, 253.972 303.525 C 254.899 302.686, 257.358 302, 259.436 302 C 262.470 302, 263.094 301.689, 262.607 300.418 C 262.273 299.548, 262 298.648, 262 298.418 C 262 298.188, 261.325 298, 260.500 298 C 259.300 298, 259 296.500, 259 290.500 L 259 283 261.875 283 C 263.456 283, 266.156 282.719, 267.875 282.375 C 270.989 281.752, 271 281.726, 271 275.281 C 271 269.731, 271.274 268.741, 272.931 268.308 C 275.170 267.722, 276.137 265.839, 275.078 264.125 C 274.142 262.612, 271 263.754, 271 265.607 C 271 267.479, 269.360 267.382, 268.625 265.465 C 268.101 264.100, 267.757 264.113, 265.518 265.580 C 263.214 267.089, 263 267.092, 263 265.615 C 263 264.441, 262.060 264, 259.559 264 C 257.666 264, 255.810 263.501, 255.432 262.891 C 254.948 262.106, 255.965 261.987, 258.908 262.484 C 261.536 262.929, 263.570 262.772, 264.428 262.060 C 265.175 261.440, 267.747 260.603, 270.143 260.201 C 273.750 259.597, 274.788 258.896, 276.174 256.133 C 278.408 251.677, 280.826 250.158, 284.750 250.743 C 287.708 251.184, 289.109 253.200, 287.250 254.343 C 286.837 254.597, 286.654 257.574, 286.842 260.960 L 287.183 267.115 293.119 266.821 C 299.047 266.527, 299.054 266.523, 298.442 263.735 C 298.104 262.199, 298.205 261.009, 298.664 261.090 C 299.124 261.171, 300.512 261.184, 301.750 261.118 C 303.663 261.018, 304 260.438, 303.997 257.250 C 303.994 253.609, 303.886 253.498, 300.303 253.417 C 298.272 253.371, 296.436 252.809, 296.222 252.167 C 295.715 250.645, 293.280 250.660, 292.771 252.188 C 292.519 252.943, 291.539 252.539, 290.077 251.077 C 288.038 249.038, 287.926 248.507, 289.079 246.353 C 289.793 245.018, 292.543 242.933, 295.189 241.719 C 297.835 240.505, 300 238.870, 300 238.085 C 300 237.300, 300.745 235.835, 301.655 234.829 C 303.230 233.089, 303.133 233, 299.655 233 C 296.470 233, 296 233.307, 296 235.385 C 296 238.292, 292.215 241, 288.152 241 C 286.036 241, 285.084 241.573, 284.689 243.083 C 284.235 244.817, 283.504 245.110, 280.322 244.833 C 276.521 244.502, 276.498 244.522, 276.175 248.487 C 275.997 250.680, 275.398 253.020, 274.845 253.687 C 272.816 256.132, 265.269 258.999, 260.934 258.973 C 255.446 258.940, 250.328 255.096, 249.395 250.307 C 248.878 247.653, 249.249 246.674, 251.593 244.501 C 253.718 242.532, 255.040 242.044, 256.951 242.524 C 260.457 243.404, 261.994 244.871, 262.032 247.372 C 262.063 249.458, 262.092 249.462, 263.532 247.559 C 264.339 246.491, 265 244.795, 265 243.790 C 265 242.366, 264.476 242.093, 262.629 242.557 C 260.687 243.044, 259.856 242.504, 258.047 239.576 C 256.831 237.609, 255.601 236, 255.312 236 C 255.024 236, 253.903 237.125, 252.821 238.500 C 251.740 239.875, 250.268 241, 249.550 241 C 248.832 241, 247.685 241.675, 247 242.500 C 246.315 243.325, 244.430 244, 242.809 244 L 239.864 244 241.932 246.904 C 243.346 248.890, 244 251.358, 244 254.707 C 244 263.414, 237.229 269.972, 228.218 269.994 C 224.347 270.004, 219.063 267.232, 217.842 264.552 C 216.503 261.614, 216.193 261.540, 213.559 263.532 C 211.042 265.436, 206.587 265.413, 204.990 263.488 C 204.174 262.505, 203.339 262.304, 202.605 262.913 C 201.983 263.429, 199.715 263.997, 197.565 264.175 C 195.414 264.354, 193.463 265.082, 193.229 265.794 C 192.921 266.732, 193.520 266.908, 195.409 266.433 C 197.089 266.012, 198.900 266.360, 200.507 267.413 C 202.533 268.740, 203 269.863, 203 273.401 C 203 278.297, 201.657 279.911, 196.744 280.923 C 193.973 281.493, 193.545 281.969, 193.807 284.187 C 194.038 286.135, 193.352 287.325, 191.057 288.959 C 189.376 290.157, 188 291.936, 188 292.913 C 188 295.316, 184.445 298.385, 182.518 297.645 C 181.661 297.317, 180.035 295.479, 178.903 293.561 C 177.658 291.450, 175.507 289.589, 173.452 288.846 C 170.604 287.817, 170.151 287.246, 170.638 285.304 C 171.122 283.378, 170.643 282.749, 167.780 281.553 C 163.437 279.738, 162.045 278.052, 161.349 273.763 C 160.633 269.351, 162.866 267, 167.771 267 C 170.399 267, 171.098 266.698, 170.306 265.906 C 169.188 264.788, 159.934 265.138, 154.848 266.491 C 152.854 267.021, 151.675 266.675, 150.098 265.098 C 147.459 262.459, 147.349 262.472, 146.593 265.487 C 145.487 269.894, 140.626 271.711, 131.368 271.180 C 126.435 270.897, 120.267 264.141, 119.500 258.184 C 119.169 255.608, 118.467 252.713, 117.940 251.750 C 117.235 250.460, 117.352 250, 118.385 250 C 120.547 250, 121.254 247.010, 119.233 246.411 C 118.280 246.129, 116.226 245.246, 114.669 244.449 C 113.112 243.652, 111.225 243, 110.476 243 C 109.726 243, 108.485 242.103, 107.717 241.006 C 106.228 238.881, 105 239.302, 105 241.939 C 105 242.823, 106.485 244.345, 108.299 245.322 C 112.696 247.690, 114.454 252.221, 112.466 256.065 C 109.325 262.139, 102.329 263.695, 94.384 260.087 C 90.422 258.288, 85 252.550, 85 250.156 C 85 249.477, 83.375 249, 81.067 249 C 78.013 249, 76.993 248.553, 76.500 247 C 76.102 245.747, 74.987 245, 73.514 245 C 70.252 245, 65.014 241.839, 65.006 239.867 C 65 238.119, 62.230 237.036, 57.710 237.014 C 55.033 237.001, 51.214 234.787, 46.452 230.489 C 43.477 227.804, 41.704 221.499, 42.142 215.168 L 42.500 209.999 38.815 209.999 C 30.398 210.001, 27.324 206.503, 29.210 199.071 C 30.105 195.544, 31.049 194.441, 35.207 192.067 L 40.141 189.249 35.414 186.374 C 32.814 184.793, 29.408 182.215, 27.844 180.644 C 24.773 177.560, 24.080 173.290, 26.500 172.362 C 28.402 171.632, 28.400 169.290, 26.494 165.636 C 25.521 163.769, 25 159.894, 25 154.513 C 25 144.676, 27.079 139.069, 32.509 134.262 C 35.503 131.611, 36.076 130.487, 35.815 127.777 C 35.524 124.753, 33.500 123.418, 33.500 126.250 C 33.500 127.586, 29.745 131.021, 28.342 130.969 C 27.879 130.951, 26.659 129.783, 25.631 128.373 C 23.337 125.225, 23.889 118.955, 26.800 115.087 C 28.510 112.815, 29.468 112.500, 34.660 112.501 C 39.854 112.502, 41.051 112.897, 44.514 115.751 C 49.254 119.658, 51.888 120.061, 48.452 116.354 C 42.955 110.422, 47.288 103.393, 58.220 100.510 C 63.102 99.222, 63.818 99.269, 67.711 101.129 C 70.027 102.235, 73.177 102.996, 74.711 102.820 L 77.500 102.500 74.712 100.610 C 73.178 99.570, 69.393 98.132, 66.302 97.413 C 61.116 96.207, 60.489 96.257, 58.205 98.053 C 50.679 103.974, 40.600 95.679, 44.367 86.664 C 45.173 84.734, 47.108 82.339, 48.666 81.341 C 50.225 80.343, 52.094 78.958, 52.820 78.264 C 54.848 76.326, 58.354 75.757, 64.444 76.377 C 69.996 76.943, 70 76.941, 70 74.146 C 70 70.859, 74.144 66.458, 76.418 67.330 C 77.253 67.651, 78.613 69.530, 79.439 71.507 C 80.845 74.873, 81.157 75.061, 84.349 74.462 C 88.413 73.700, 93.544 75.989, 94.497 78.989 C 95.382 81.780, 96.501 81.510, 99.084 77.883 C 100.857 75.392, 101.115 74.236, 100.365 72.133 C 99.541 69.823, 98.879 69.500, 94.963 69.500 C 88.744 69.500, 86.331 68.390, 85.143 64.980 C 83.008 58.856, 87.043 50.133, 92.059 50.032 C 92.916 50.014, 94.480 49.369, 95.534 48.598 C 97.204 47.377, 98.152 47.459, 102.891 49.232 C 107.890 51.103, 108.428 51.135, 109.526 49.634 C 111.268 47.251, 113.288 47.620, 116.583 50.922 C 118.848 53.191, 120.114 53.722, 122.248 53.298 C 126.309 52.490, 128.318 54.609, 127.621 58.966 C 127.069 62.420, 127.177 62.568, 131.149 63.808 C 135.905 65.292, 136.761 64.860, 135.231 61.748 C 134.623 60.512, 133.842 58.487, 133.495 57.250 C 133.149 56.012, 132.455 55, 131.953 55 C 131.451 55, 130.081 53.088, 128.907 50.750 C 127.734 48.413, 125.909 45.554, 124.852 44.399 C 123.795 43.243, 121.401 39.871, 119.531 36.905 C 116.394 31.930, 116.254 31.377, 117.720 29.756 C 120.847 26.301, 127.678 28.094, 133.818 33.982 C 135.093 35.204, 135.894 36.833, 135.599 37.602 C 135.214 38.606, 135.900 39, 138.031 39 C 141.923 39, 141.827 37.167, 137.759 33.812 C 135.146 31.657, 134.748 30.873, 135.750 29.862 C 136.438 29.168, 137.014 27.453, 137.032 26.050 C 137.086 21.671, 139.375 19.660, 143.437 20.422 C 145.383 20.787, 147.430 21.935, 147.986 22.973 C 149.734 26.240, 153.230 25.895, 155.750 22.206 C 156.988 20.394, 158 18.287, 158 17.524 C 158 16.761, 159.296 15.213, 160.880 14.085 C 162.464 12.957, 164.003 11.014, 164.299 9.767 C 164.596 8.520, 165.152 6.488, 165.536 5.250 L 166.233 3 87.617 3 L 9 3 9 59.122 M 33.187 7.250 L 33.500 10.500 65.750 10.764 L 98 11.028 98 7.514 L 98 4 65.437 4 L 32.873 4 33.187 7.250 M 151 6.455 C 151 8.844, 155.131 14, 157.045 14 C 158.486 14, 158.190 11.402, 156.598 10.081 C 155.827 9.442, 154.919 7.811, 154.579 6.459 C 153.766 3.218, 151 3.215, 151 6.455 M 198.189 5.677 C 199.117 5.922, 200.051 7.108, 200.263 8.311 C 200.619 10.332, 200.711 10.358, 201.470 8.649 C 202.357 6.650, 200.682 4.951, 198 5.131 C 196.876 5.207, 196.924 5.344, 198.189 5.677 M 181 8.500 C 181 9.325, 181.450 10, 182 10 C 182.550 10, 183 9.325, 183 8.500 C 183 7.675, 182.550 7, 182 7 C 181.450 7, 181 7.675, 181 8.500 M 184.673 10.660 C 184.310 11.023, 184.910 11.949, 186.006 12.717 C 187.103 13.485, 188 14.988, 188 16.057 C 188 18.386, 190.534 18.656, 191.393 16.418 C 192.247 14.194, 192.181 14, 190.567 14 C 189.779 14, 188.849 13.100, 188.500 12 C 187.875 10.032, 185.969 9.365, 184.673 10.660 M 194 11.893 C 194 13.522, 196.834 13.905, 198.049 12.441 C 199.038 11.249, 198.792 11, 196.622 11 C 195.180 11, 194 11.402, 194 11.893 M 211.597 13.375 C 210.781 16.416, 210.861 17, 212.092 17 C 212.693 17, 214.329 17.900, 215.727 19 C 219.072 21.631, 220 21.523, 220 18.500 C 220 17.064, 219.424 16, 218.646 16 C 217.901 16, 216.139 14.931, 214.730 13.625 L 212.168 11.251 211.597 13.375 M 132 16.958 C 132 17.485, 128.512 18.069, 124.250 18.257 L 116.500 18.598 124.750 18.799 C 131.506 18.964, 133 18.728, 133 17.500 C 133 16.675, 132.775 16, 132.500 16 C 132.225 16, 132 16.431, 132 16.958 M 213.008 22.985 C 211.831 23.720, 211.775 24.175, 212.742 25.142 C 214.198 26.598, 215.313 25.781, 214.838 23.605 C 214.597 22.499, 214.071 22.321, 213.008 22.985 M 80.084 30.656 C 79.529 32.667, 79.286 34.654, 79.544 35.071 C 79.802 35.488, 79.491 36.003, 78.854 36.215 C 78.217 36.428, 77.576 37.704, 77.431 39.051 C 77.286 40.398, 77.129 41.837, 77.083 42.250 C 77.037 42.663, 76.325 43, 75.500 43 C 74.675 43, 74 43.450, 74 44 C 74 44.550, 75.013 45.007, 76.250 45.015 C 77.487 45.024, 79.160 45.448, 79.966 45.958 C 80.896 46.546, 81.903 46.496, 82.716 45.820 C 83.668 45.031, 84 45.159, 84 46.319 C 84 47.178, 83.543 48.165, 82.984 48.510 C 81.044 49.709, 83.074 51.031, 85.148 49.921 C 86.655 49.114, 87.020 48.214, 86.569 46.418 C 86.224 45.045, 86.403 44, 86.981 44 C 87.541 44, 88 43.100, 88 42 C 88 40.900, 88.900 39.100, 90 38 C 92.382 35.618, 92.542 34.145, 90.506 33.364 C 89.684 33.048, 89.263 32.384, 89.570 31.886 C 89.878 31.389, 89.845 30.086, 89.497 28.991 C 89.009 27.453, 87.981 27, 84.980 27 C 81.358 27, 81.025 27.248, 80.084 30.656 M 153.055 30.434 C 152.390 31.235, 151.994 32.892, 152.173 34.117 C 152.591 36.963, 155 37.857, 155 35.167 C 155 34.067, 155.419 33.017, 155.930 32.833 C 156.442 32.650, 156.276 31.708, 155.562 30.739 C 154.436 29.212, 154.102 29.172, 153.055 30.434 M 232.813 29.683 C 233.534 29.972, 234.397 29.936, 234.729 29.604 C 235.061 29.272, 234.471 29.036, 233.417 29.079 C 232.252 29.127, 232.015 29.364, 232.813 29.683 M 245.486 29.735 C 246.578 30.011, 248.265 31.153, 249.236 32.272 C 250.989 34.294, 251 34.290, 251 31.653 C 251 29.233, 250.670 29.010, 247.250 29.116 C 245.066 29.184, 244.329 29.442, 245.486 29.735 M 179.702 31.631 C 179.355 31.979, 179.546 33.152, 180.128 34.239 C 181.375 36.570, 183.630 35.084, 182.664 32.567 C 182.039 30.938, 180.790 30.544, 179.702 31.631 M 162.459 33.067 C 162.096 33.653, 162.040 34.373, 162.333 34.667 C 163.050 35.383, 165 34.121, 165 32.941 C 165 31.663, 163.274 31.748, 162.459 33.067 M 204.507 34.636 C 202.500 36.643, 203.746 38.141, 206.767 37.351 C 208.081 37.007, 209 35.991, 209 34.883 C 209 32.565, 206.704 32.439, 204.507 34.636 M 66 38 C 66 42.041, 67.276 43.330, 68.393 40.418 C 69.531 37.453, 69.051 34, 67.500 34 C 66.417 34, 66 35.111, 66 38 M 234.008 35.985 C 232.831 36.720, 232.775 37.175, 233.742 38.142 C 235.198 39.598, 236.313 38.781, 235.838 36.605 C 235.597 35.499, 235.071 35.321, 234.008 35.985 M 100.458 37.068 C 100.095 37.656, 99.168 37.895, 98.399 37.600 C 97.384 37.210, 97 37.923, 97 40.198 C 97 41.922, 97.296 43.037, 97.658 42.675 C 98.020 42.313, 98.898 42.501, 99.610 43.091 C 100.322 43.682, 101.885 43.854, 103.084 43.473 C 104.729 42.951, 104.937 42.579, 103.930 41.957 C 103.196 41.503, 102.312 41.307, 101.964 41.522 C 101.617 41.737, 101.333 41.277, 101.333 40.500 C 101.333 39.723, 101.708 39.320, 102.167 39.603 C 102.625 39.886, 103 39.641, 103 39.059 C 103 38.477, 102.438 37.993, 101.750 37.985 C 100.917 37.974, 101 37.646, 102 37 C 102.901 36.418, 103.025 36.025, 102.309 36.015 C 101.654 36.007, 100.821 36.481, 100.458 37.068 M 114.032 37.750 C 114.014 38.438, 113.493 38.888, 112.872 38.750 C 112.252 38.612, 111.577 39.627, 111.371 41.005 C 111.073 43.003, 111.610 43.782, 114.027 44.851 C 115.693 45.589, 117.831 45.892, 118.778 45.525 C 120.402 44.895, 120.400 44.783, 118.750 43.568 C 117.787 42.859, 117 41.853, 117 41.331 C 117 39.862, 114.068 36.325, 114.032 37.750 M 255 39.828 C 255 42.338, 255.702 43.266, 259 45.120 C 261.200 46.357, 263 47.905, 263 48.562 C 263 49.218, 263.637 50.284, 264.416 50.930 C 265.547 51.869, 265.963 51.692, 266.483 50.053 C 266.844 48.915, 267.997 48, 269.067 48 C 270.130 48, 271 47.598, 271 47.107 C 271 46.024, 268.531 45, 265.918 45 C 264.346 45, 263.979 44.233, 263.884 40.750 C 263.820 38.413, 263.562 37.288, 263.311 38.250 C 262.822 40.122, 261.383 40.600, 260.833 39.074 C 260.650 38.565, 259.262 37.841, 257.750 37.466 C 255.203 36.833, 255 37.008, 255 39.828 M 68 44 C 68 44.550, 68.423 45, 68.941 45 C 69.459 45, 70.160 44.550, 70.500 44 C 70.840 43.450, 70.416 43, 69.559 43 C 68.702 43, 68 43.450, 68 44 M 106 45.500 C 106 46.325, 106.675 47, 107.500 47 C 108.325 47, 109 46.325, 109 45.500 C 109 44.675, 108.325 44, 107.500 44 C 106.675 44, 106 44.675, 106 45.500 M 213.598 54.891 C 211.893 56.775, 210.079 65, 211.368 65 C 211.716 65, 212.900 64.100, 214 63 C 215.100 61.900, 216.890 61, 217.979 61 C 219.752 61, 219.837 60.715, 218.794 58.250 C 216.754 53.427, 215.599 52.680, 213.598 54.891 M 266 54.300 C 266 55.972, 268.028 58, 269.700 58 C 270.420 58, 271 56.885, 271 55.500 C 271 53.500, 270.500 53, 268.500 53 C 267.115 53, 266 53.580, 266 54.300 M 244.610 56.573 C 244.190 57.669, 244.511 58.048, 245.671 57.823 C 246.586 57.645, 247.522 56.938, 247.750 56.250 C 248.363 54.411, 245.320 54.724, 244.610 56.573 M 97.500 58.396 C 99.928 60.266, 102.319 60.465, 101.756 58.750 C 101.530 58.063, 100.030 57.355, 98.423 57.178 C 95.607 56.868, 95.573 56.913, 97.500 58.396 M 31.799 62.914 C 32.143 63.814, 31.915 64.065, 31.170 63.605 C 29.515 62.582, 29.713 64.856, 31.429 66.571 C 33.127 68.270, 36 68.465, 36 66.882 C 36 66.130, 37.807 65.935, 41.523 66.288 C 45.594 66.674, 47.431 66.426, 48.513 65.345 C 49.320 64.538, 50.879 63.809, 51.978 63.727 C 53.359 63.623, 53.656 63.256, 52.937 62.538 C 52.354 61.955, 47.377 61.500, 41.579 61.500 C 33.096 61.500, 31.355 61.752, 31.799 62.914 M 276.471 62.554 C 277.556 63.374, 279.055 63.809, 279.803 63.522 C 280.551 63.235, 281.603 63, 282.141 63 C 282.678 63, 282.840 62.550, 282.500 62 C 282.160 61.450, 280.221 61.014, 278.191 61.032 C 274.704 61.062, 274.609 61.146, 276.471 62.554 M 58 66.500 C 58 68.391, 57.452 69.029, 55.750 69.118 C 52.838 69.272, 52.807 69.268, 50.750 68.467 C 49.308 67.906, 49 68.344, 49 70.960 C 49 73.815, 49.227 74.057, 51.250 73.361 C 52.487 72.935, 55.075 72.532, 57 72.464 C 62.929 72.257, 63.263 72.122, 62.510 70.250 C 62.123 69.287, 61.725 68.050, 61.625 67.500 C 60.933 63.689, 58 62.879, 58 66.500 M 284 67 C 284 67.550, 284.675 68, 285.500 68 C 286.325 68, 287 67.550, 287 67 C 287 66.450, 286.325 66, 285.500 66 C 284.675 66, 284 66.450, 284 67 M 208.500 69 C 208.160 69.550, 208.584 70, 209.441 70 C 210.298 70, 211 69.550, 211 69 C 211 68.450, 210.577 68, 210.059 68 C 209.541 68, 208.840 68.450, 208.500 69 M 135.667 69.667 C 135.300 70.033, 135 70.949, 135 71.702 C 135 72.767, 135.450 72.830, 137.028 71.985 C 138.143 71.388, 138.792 70.472, 138.469 69.950 C 137.783 68.841, 136.611 68.722, 135.667 69.667 M 251 71 C 251 71.550, 251.450 72, 252 72 C 252.550 72, 253 71.550, 253 71 C 253 70.450, 252.550 70, 252 70 C 251.450 70, 251 70.450, 251 71 M 220.250 72.297 C 217.110 73.705, 217.445 75, 220.950 75 C 222.674 75, 224.292 75.699, 224.841 76.681 C 225.720 78.252, 225.891 78.252, 227.455 76.688 C 228.375 75.768, 228.875 74.606, 228.566 74.106 C 227.462 72.321, 222.570 71.256, 220.250 72.297 M 122.352 73.993 C 119.314 75.219, 118.523 76.952, 120.226 78.654 C 121.509 79.937, 122.139 79.850, 125.371 77.944 C 128.314 76.207, 128.823 75.492, 127.905 74.385 C 126.609 72.824, 125.454 72.742, 122.352 73.993 M 37 77.028 C 37 77.498, 37.450 78.160, 38 78.500 C 39.666 79.530, 39.214 83.019, 37.500 82.362 C 36.675 82.045, 36 80.661, 36 79.286 C 36 77.417, 35.601 76.939, 34.418 77.393 C 33.548 77.727, 32.423 78, 31.918 78 C 30.240 78, 30.969 82.039, 33.188 85.040 C 35.318 87.921, 38 89.013, 38 87 C 38 86.450, 38.856 85.144, 39.901 84.099 C 43.306 80.694, 43.336 78.565, 39.998 77.305 C 38.349 76.683, 37 76.558, 37 77.028 M 166.784 77.549 C 166.582 77.752, 163.083 78.434, 159.010 79.066 C 151.395 80.248, 136.751 86.942, 129 92.785 C 122.931 97.360, 109.013 113.807, 108.991 116.431 C 108.986 117.019, 107.875 119.750, 106.522 122.500 C 105.169 125.250, 104.048 128.760, 104.031 130.300 C 104.014 131.839, 103.301 134.451, 102.447 136.103 C 100.449 139.967, 100.609 158.759, 102.709 166.856 C 104.654 174.358, 109.859 187.004, 112.028 189.500 C 112.984 190.600, 114.489 192.930, 115.372 194.679 C 117.343 198.581, 128.759 210.026, 132.651 212.003 C 134.218 212.799, 136.772 214.474, 138.327 215.725 C 139.881 216.976, 142.019 218, 143.077 218 C 144.135 218, 145 218.439, 145 218.975 C 145 219.998, 150.726 222.807, 157.500 225.106 C 160.155 226.007, 166.543 226.469, 176.500 226.482 C 198.050 226.508, 207.975 223.456, 223.500 212.029 C 231.065 206.461, 233.315 203.431, 230.966 201.979 C 230.191 201.500, 229.878 200.788, 230.270 200.396 C 230.662 200.005, 230.481 199.080, 229.869 198.342 C 229.021 197.320, 229.116 197, 230.269 197 C 231.102 197, 232.066 198.125, 232.411 199.500 C 232.756 200.875, 233.716 202, 234.544 202 C 236.262 202, 238.207 197.703, 237.419 195.649 C 236.699 193.773, 232.718 191.766, 230.517 192.169 C 229.522 192.351, 228.511 191.938, 228.271 191.251 C 227.653 189.484, 230.923 188.471, 233.017 189.779 C 233.981 190.381, 235.721 190.624, 236.885 190.320 C 238.724 189.839, 239 190.199, 239 193.078 L 239 196.389 241.335 193.224 C 242.619 191.484, 244.462 188.134, 245.430 185.780 C 246.399 183.426, 248.029 179.616, 249.052 177.313 C 250.075 175.011, 251.566 170.511, 252.364 167.313 C 255.260 155.721, 251.313 131.958, 244.326 118.925 C 239.738 110.367, 235.206 104.200, 232.987 103.496 C 231.882 103.145, 230.296 101.540, 229.463 99.929 C 228.630 98.318, 227.623 96.988, 227.224 96.973 C 226.826 96.959, 224.549 95.159, 222.164 92.973 C 219.615 90.637, 216.834 89, 215.414 89 C 214.086 89, 213 88.599, 213 88.109 C 213 86.495, 200.640 81.156, 193.036 79.485 C 186.309 78.007, 167.699 76.635, 166.784 77.549 M 284 81.933 C 284 82.446, 284.877 83.144, 285.949 83.484 C 287.021 83.824, 288.176 84.979, 288.516 86.051 C 289.252 88.370, 289.978 88.468, 292.546 86.590 C 294.437 85.207, 294.438 85.142, 292.582 83.090 C 290.659 80.966, 284 80.067, 284 81.933 M 234.031 83.750 C 234.049 84.162, 235.105 85.257, 236.380 86.182 C 238.641 87.824, 238.686 87.806, 238.232 85.432 C 237.935 83.881, 237.084 83, 235.883 83 C 234.848 83, 234.014 83.338, 234.031 83.750 M 112.500 85.765 C 111.950 86.169, 110.885 87.590, 110.134 88.922 L 108.768 91.344 111.829 88.922 C 114.799 86.571, 115.783 84.984, 114.250 85.015 C 113.838 85.024, 113.050 85.361, 112.500 85.765 M 56.750 87.080 C 55.788 87.641, 55 88.704, 55 89.443 C 55 91.869, 58.386 92.301, 59.872 90.065 C 60.627 88.929, 61.837 88, 62.563 88 C 63.288 88, 64.160 87.550, 64.500 87 C 65.315 85.681, 59.041 85.746, 56.750 87.080 M 147.861 89.048 C 150.622 91.331, 157.049 91.906, 154.813 89.670 C 154.081 88.939, 151.687 88.060, 149.491 87.718 L 145.500 87.095 147.861 89.048 M 241.924 91.369 C 244.631 94.307, 245.165 94.594, 244.449 92.728 C 244.181 92.029, 242.958 90.845, 241.731 90.097 C 239.603 88.800, 239.612 88.859, 241.924 91.369 M 206 92.902 C 206 93.398, 207.350 94.275, 209 94.850 C 210.650 95.425, 212 96.369, 212 96.948 C 212 97.527, 212.900 98, 214 98 C 216.976 98, 216.424 96.229, 212.750 93.989 C 209.338 91.909, 206 91.371, 206 92.902 M 132.813 93.683 C 133.534 93.972, 134.397 93.936, 134.729 93.604 C 135.061 93.272, 134.471 93.036, 133.417 93.079 C 132.252 93.127, 132.015 93.364, 132.813 93.683 M 142 94 C 141.175 94.533, 139.461 94.976, 138.191 94.985 C 136.813 94.994, 136.148 95.430, 136.541 96.067 C 136.904 96.653, 136.412 97.709, 135.449 98.414 C 134.049 99.437, 133.965 99.860, 135.029 100.518 C 135.908 101.061, 136.852 100.603, 137.803 99.171 C 138.626 97.931, 140.289 97, 141.681 97 C 145.101 97, 143.788 98.501, 137.712 101.538 C 127.268 106.759, 123.996 111.919, 124.008 123.151 C 124.022 135.503, 129.220 141.958, 147.306 152.083 C 159.592 158.961, 162.744 161.452, 164.512 165.682 C 166.993 171.621, 166.456 175.166, 162.490 179.010 C 159.197 182.201, 158.563 182.411, 152.240 182.393 C 144.608 182.371, 141.700 181.127, 137.298 176 C 133.395 171.454, 132 168.717, 132 165.605 C 132 163.376, 128.687 159, 127 159 C 126.657 159, 125.484 159.832, 124.392 160.849 C 122.559 162.557, 122.467 163.455, 123.182 172.599 C 124.279 186.623, 124.344 186.786, 129.781 189.145 C 133.327 190.683, 137.482 191.322, 146.500 191.714 C 157.845 192.207, 158.818 192.094, 164.326 189.639 C 167.531 188.211, 169.990 187.530, 169.791 188.126 C 169.593 188.722, 167.692 189.807, 165.568 190.538 C 163.444 191.268, 161.075 192.497, 160.303 193.269 C 159.099 194.473, 159.133 194.866, 160.549 196.041 C 162.907 197.998, 197.417 197.563, 209 195.431 C 222.955 192.862, 231.650 186.453, 234.505 176.630 C 238.261 163.709, 232.216 153.899, 217.006 148.232 L 214.513 147.303 217.506 145.742 C 223.556 142.586, 226.489 131.176, 223.224 123.500 C 221.862 120.299, 213.148 113.685, 209 112.704 C 207.625 112.379, 199.863 112.007, 191.750 111.879 L 177 111.645 177 106.845 C 177 102.964, 176.570 101.770, 174.750 100.600 C 171.094 98.249, 161.231 96.934, 152.639 97.651 L 144.705 98.312 145.371 95.656 C 146.084 92.819, 144.802 92.189, 142 94 M 218 94 C 218 94.550, 218.450 95, 219 95 C 219.550 95, 220 94.550, 220 94 C 220 93.450, 219.550 93, 219 93 C 218.450 93, 218 93.450, 218 94 M 13.885 94.750 C 13.821 95.162, 13.709 96.175, 13.635 97 C 13.561 97.825, 12.825 98.354, 12 98.176 C 11.175 97.997, 12.032 99.347, 13.905 101.176 C 16.084 103.303, 17.465 104.050, 17.739 103.250 C 17.974 102.563, 18.836 102, 19.655 102 C 21.819 102, 24.287 99.190, 23.629 97.474 C 23.317 96.663, 22.122 96, 20.972 96 C 19.823 96, 19.160 95.550, 19.500 95 C 19.861 94.417, 18.844 94, 17.059 94 C 15.377 94, 13.948 94.338, 13.885 94.750 M 179.500 98 C 179.840 98.550, 180.316 99, 180.559 99 C 180.802 99, 181 98.550, 181 98 C 181 97.450, 180.523 97, 179.941 97 C 179.359 97, 179.160 97.450, 179.500 98 M 222.638 99.500 C 222.955 100.325, 223.391 101, 223.607 101 C 223.823 101, 224 100.325, 224 99.500 C 224 98.675, 223.564 98, 223.031 98 C 222.499 98, 222.322 98.675, 222.638 99.500 M 40.568 101.585 C 39.767 104.775, 40.766 108.244, 42.335 107.722 C 43.819 107.228, 44.349 104.526, 43.570 101.421 C 42.776 98.260, 41.384 98.336, 40.568 101.585 M 251.027 101.281 C 251.042 101.952, 252.326 104.034, 253.880 105.908 L 256.706 109.316 257.210 106.683 C 257.532 104.995, 257.137 103.558, 256.107 102.677 C 253.689 100.611, 250.996 99.871, 251.027 101.281 M 93.250 104.031 C 91.060 104.911, 90.104 107, 91.892 107 C 92.382 107, 93.086 108.208, 93.457 109.684 L 94.131 112.369 96.565 108.082 C 97.904 105.725, 99 103.617, 99 103.398 C 99 102.712, 95.600 103.087, 93.250 104.031 M 182 105.559 C 182 106.416, 182.450 106.840, 183 106.500 C 183.550 106.160, 184 105.459, 184 104.941 C 184 104.423, 183.550 104, 183 104 C 182.450 104, 182 104.702, 182 105.559 M 86.507 106.989 C 86.157 107.555, 86.558 107.723, 87.448 107.382 C 89.180 106.717, 89.497 106, 88.059 106 C 87.541 106, 86.843 106.445, 86.507 106.989 M 149 106.718 C 144.974 107.464, 140.334 111.582, 139.646 115.018 C 138.458 120.962, 143.519 126.857, 156 134.067 C 160.125 136.449, 164.573 139.209, 165.885 140.199 C 169.483 142.916, 170.187 142.438, 169.494 137.750 C 169.148 135.412, 168.750 131.392, 168.609 128.815 C 168.312 123.378, 166.721 121, 163.378 121 C 160.561 121, 156.373 117.227, 157.708 115.892 C 158.207 115.393, 160.615 114.393, 163.058 113.669 L 167.500 112.354 162.500 109.800 C 156.965 106.973, 152.780 106.018, 149 106.718 M 287.396 108.336 C 285.804 109.705, 284.981 111.161, 285.409 111.853 C 285.810 112.502, 286.544 112.782, 287.040 112.475 C 287.536 112.169, 289.282 112.612, 290.921 113.459 C 294.892 115.512, 295.673 115.402, 293.575 113.083 C 292.215 111.580, 292.074 110.731, 292.920 109.149 C 294.401 106.382, 294.297 106, 292.056 106 C 290.986 106, 288.889 107.051, 287.396 108.336 M 56.702 110.631 C 56.355 110.979, 56.540 112.141, 57.115 113.215 C 57.912 114.703, 57.770 115.596, 56.519 116.979 C 53.934 119.835, 57.024 120.203, 59.693 117.358 C 60.996 115.969, 62.519 115.262, 63.443 115.617 C 65.924 116.569, 65.246 114.339, 62.365 112.073 C 59.685 109.965, 57.839 109.495, 56.702 110.631 M 146.750 111.392 C 144.605 113.020, 144.468 115, 146.500 115 C 147.325 115, 148 114.325, 148 113.500 C 148 112.507, 148.993 112, 150.941 112 C 152.559 112, 154.160 111.550, 154.500 111 C 155.427 109.501, 148.800 109.836, 146.750 111.392 M 222.205 112.253 C 221.471 113.137, 221.582 114.076, 222.583 115.444 C 223.915 117.265, 224 117.190, 224 114.191 C 224 110.674, 223.744 110.398, 222.205 112.253 M 233.710 113 C 233.998 114.100, 234.406 115, 234.617 115 C 234.827 115, 235 114.100, 235 113 C 235 111.900, 234.592 111, 234.094 111 C 233.595 111, 233.423 111.900, 233.710 113 M 257.998 113.494 C 259.674 117.903, 262.236 121.164, 263.237 120.163 C 263.823 119.577, 263.153 117.677, 261.455 115.112 C 258.428 110.537, 256.537 109.652, 257.998 113.494 M 228 114.941 C 228 115.459, 228.450 116.160, 229 116.500 C 229.550 116.840, 230 116.416, 230 115.559 C 230 114.702, 229.550 114, 229 114 C 228.450 114, 228 114.423, 228 114.941 M 236 118.500 C 235.245 120.425, 234.066 122, 233.381 122 C 232.695 122, 231.839 122.933, 231.477 124.072 C 231.082 125.318, 230.257 125.929, 229.410 125.604 C 228.389 125.212, 228 125.894, 228 128.075 C 228 129.905, 228.491 131.024, 229.250 130.925 C 231.849 130.588, 233 131.046, 233 132.417 C 233 133.196, 232.662 133.983, 232.250 134.167 C 230.585 134.907, 227.671 142.071, 228.641 143.041 C 231.118 145.518, 237.388 133.378, 235.073 130.588 C 233.896 129.169, 234.610 126, 236.107 126 C 236.598 126, 237 124.902, 237 123.559 C 237 122.216, 237.450 120.840, 238 120.500 C 239.193 119.763, 239.354 115, 238.187 115 C 237.739 115, 236.755 116.575, 236 118.500 M 89.602 119.158 C 87.898 121.591, 87.489 124, 88.781 124 C 89.642 124, 92.193 117.860, 91.585 117.251 C 91.375 117.042, 90.483 117.900, 89.602 119.158 M 143 119.378 C 143 120.135, 143.675 121.315, 144.500 122 C 146.090 123.320, 146.452 122.341, 145.393 119.582 C 144.646 117.636, 143 117.495, 143 119.378 M 187.250 119.662 C 185.892 120.210, 185.712 129.778, 186.859 140.500 C 187.485 146.358, 187.566 146.492, 190.301 146.172 C 191.842 145.991, 195.442 145.060, 198.301 144.102 C 202.393 142.732, 203.872 141.631, 205.248 138.931 C 209.361 130.862, 206.271 123.396, 197.701 120.695 C 192.305 118.994, 189.575 118.724, 187.250 119.662 M 314.440 121.189 C 313.887 122.931, 314.537 124.062, 317.623 126.727 C 323.878 132.131, 324.102 132.439, 326.975 139.628 C 329.076 144.884, 330.241 146.577, 331.927 146.828 C 334.071 147.147, 334.089 147.072, 332.566 144.128 C 331.705 142.462, 331 140.092, 331 138.862 C 331 135.798, 326.957 130.139, 324.517 129.788 C 323.419 129.629, 322.353 128.600, 322.149 127.500 C 321.944 126.400, 321.152 125.140, 320.389 124.700 C 319.625 124.260, 319 122.798, 319 121.450 C 319 118.260, 315.435 118.055, 314.440 121.189 M 333 124 C 333 125.100, 333.402 126, 333.893 126 C 335.017 126, 336.066 123.399, 335.264 122.598 C 334.061 121.394, 333 122.051, 333 124 M 113 126 C 113 127.650, 113.450 129, 114 129 C 114.550 129, 115 127.650, 115 126 C 115 124.350, 114.550 123, 114 123 C 113.450 123, 113 124.350, 113 126 M 286.441 124.468 C 285.374 125.276, 285.007 125.951, 285.628 125.968 C 286.248 125.986, 287.315 125.325, 288 124.500 C 289.581 122.595, 288.935 122.582, 286.441 124.468 M 148.150 124.950 C 148.580 126.239, 149.951 126.471, 150.075 125.275 C 150.116 124.876, 149.610 124.370, 148.950 124.150 C 148.290 123.930, 147.930 124.290, 148.150 124.950 M 241 125 C 241 125.550, 241.450 126, 242 126 C 242.550 126, 243 125.550, 243 125 C 243 124.450, 242.550 124, 242 124 C 241.450 124, 241 124.450, 241 125 M 160.762 125.707 C 162.006 125.946, 163.806 125.937, 164.762 125.687 C 165.718 125.437, 164.700 125.241, 162.500 125.252 C 160.300 125.263, 159.518 125.468, 160.762 125.707 M 15 127.500 C 15 128.325, 15.436 129, 15.969 129 C 16.501 129, 16.678 128.325, 16.362 127.500 C 16.045 126.675, 15.609 126, 15.393 126 C 15.177 126, 15 126.675, 15 127.500 M 60 126.432 C 60 127.355, 66.149 131.184, 66.718 130.615 C 67.695 129.638, 63.854 126, 61.845 126 C 60.830 126, 60 126.194, 60 126.432 M 237.923 127.191 C 237.232 129.986, 237.409 131, 238.588 131 C 240.202 131, 240.504 128.429, 239 127.500 C 238.450 127.160, 237.966 127.021, 237.923 127.191 M 159.500 129 C 159.840 129.550, 160.316 130, 160.559 130 C 160.802 130, 161 129.550, 161 129 C 161 128.450, 160.523 128, 159.941 128 C 159.359 128, 159.160 128.450, 159.500 129 M 19.201 130.255 C 18.269 131.380, 18.218 132.016, 19.018 132.511 C 20.498 133.426, 21.255 132.558, 20.838 130.423 C 20.534 128.860, 20.371 128.844, 19.201 130.255 M 265.335 130.430 C 265.701 131.383, 266.007 133.814, 266.015 135.832 C 266.024 137.849, 266.457 140.175, 266.979 141 C 267.803 142.303, 268.163 142.254, 269.714 140.630 C 271.016 139.267, 271.161 138.635, 270.250 138.297 C 268.801 137.760, 268.543 135, 269.941 135 C 270.459 135, 271.160 135.450, 271.500 136 C 271.840 136.550, 273.611 137, 275.437 137 C 277.262 137, 279.315 137.675, 280 138.500 C 281.836 140.712, 283 140.329, 283 137.513 C 283 135.603, 282.165 134.678, 279.395 133.521 C 277.393 132.684, 274.690 132.291, 273.315 132.636 C 271.589 133.069, 269.904 132.566, 267.754 130.976 C 265.233 129.112, 264.791 129.012, 265.335 130.430 M 115 132 C 115 133.100, 115.450 134, 116 134 C 116.550 134, 117 133.100, 117 132 C 117 130.900, 116.550 130, 116 130 C 115.450 130, 115 130.900, 115 132 M 330.583 131.643 C 330.237 132.547, 330.169 133.502, 330.433 133.767 C 331.363 134.697, 334 133.044, 334 131.531 C 334 129.484, 331.379 129.570, 330.583 131.643 M 241.250 132.662 C 239.696 133.289, 239.454 152, 241 152 C 241.550 152, 242 153.125, 242 154.500 C 242 155.875, 242.563 156.996, 243.250 156.992 C 245.591 156.978, 247 151.660, 247 142.836 C 247 135.193, 246.752 133.938, 245.066 133.035 C 244.002 132.466, 242.989 132.036, 242.816 132.079 C 242.642 132.122, 241.938 132.385, 241.250 132.662 M 298.750 133.333 C 296.916 134.787, 296.288 136.558, 297.977 135.514 C 298.514 135.182, 300.764 135.398, 302.977 135.994 C 306.674 136.989, 307 137.353, 307 140.480 C 307 144.714, 307.911 145.330, 310.871 143.098 L 313.185 141.352 310.509 139.598 C 308.082 138.008, 307.989 137.729, 309.506 136.619 C 311.013 135.517, 311.026 135.266, 309.630 134.107 C 307.298 132.172, 300.798 131.710, 298.750 133.333 M 22.436 136.750 C 22.104 138.262, 21.660 140.063, 21.448 140.750 C 20.758 142.988, 21.760 142.073, 23.818 138.584 C 24.927 136.705, 25.571 134.905, 25.250 134.584 C 24.010 133.343, 23.014 134.110, 22.436 136.750 M 82.500 135.657 C 77.568 136.244, 71.550 138.143, 70.765 139.361 C 69.086 141.965, 70.035 142.750, 74.280 142.272 C 76.891 141.978, 79.976 142.381, 82.190 143.306 L 85.819 144.822 86.159 139.911 C 86.347 137.209, 86.275 135.066, 86 135.149 C 85.725 135.232, 84.150 135.460, 82.500 135.657 M 14.785 137.750 C 14.179 140.679, 15.152 144, 16.617 144 C 18.087 144, 18.357 141.935, 17.370 138.250 C 16.651 135.568, 15.290 135.305, 14.785 137.750 M 43.756 138.977 C 40.118 141.839, 39.674 145.556, 42.730 147.558 C 45.558 149.412, 45.380 149.528, 46.606 145.042 C 47.427 142.038, 48.140 141.432, 52.025 140.430 L 56.500 139.278 53.685 138.139 C 49.592 136.483, 46.606 136.735, 43.756 138.977 M 191 138.227 C 191 140.050, 192.773 141.561, 193.757 140.576 C 194.100 140.233, 193.620 139.192, 192.690 138.262 C 191.132 136.703, 191 136.700, 191 138.227 M 124 141.227 C 124 143.050, 125.773 144.561, 126.757 143.576 C 127.100 143.233, 126.620 142.192, 125.690 141.262 C 124.132 139.703, 124 139.700, 124 141.227 M 119.510 143.984 C 118.773 145.177, 119.709 147, 121.059 147 C 122.276 147, 122.284 144.293, 121.069 143.543 C 120.557 143.226, 119.856 143.425, 119.510 143.984 M 234.194 146.206 C 232.584 147.816, 232.689 149, 234.441 149 C 236.300 149, 237.068 147.728, 236.128 146.208 C 235.555 145.280, 235.120 145.280, 234.194 146.206 M 224 147 C 224 147.550, 224.477 148, 225.059 148 C 225.641 148, 225.840 147.550, 225.500 147 C 225.160 146.450, 224.684 146, 224.441 146 C 224.198 146, 224 146.450, 224 147 M 283.166 147.234 C 280.284 150.116, 283.731 153.834, 290.449 155.089 C 292.935 155.554, 296.099 156.674, 297.479 157.578 C 299.689 159.027, 299.912 159.697, 299.350 163.212 C 298.783 166.758, 298.923 167.162, 300.606 166.842 C 302.131 166.551, 302.559 165.452, 302.804 161.195 C 303.066 156.635, 303.446 155.781, 305.571 154.973 C 307.527 154.229, 307.987 153.415, 307.805 151.018 C 307.525 147.349, 306.828 147.263, 303.591 150.500 C 299.511 154.579, 291.349 153.638, 286.628 148.544 C 284.880 146.657, 284.055 146.345, 283.166 147.234 M 334.583 147.866 C 334.152 148.563, 334.070 149.403, 334.400 149.733 C 335.295 150.628, 336.271 149.312, 335.787 147.862 C 335.449 146.846, 335.213 146.846, 334.583 147.866 M 123.500 149 C 123.840 149.550, 124.766 150, 125.559 150 C 127.306 150, 127.463 153.137, 125.800 154.800 C 125.140 155.460, 124.955 156, 125.390 156 C 126.307 156, 129.918 151.858, 129.967 150.750 C 129.985 150.338, 129.325 150, 128.500 150 C 127.675 150, 127 149.550, 127 149 C 127 148.450, 126.073 148, 124.941 148 C 123.809 148, 123.160 148.450, 123.500 149 M 131 150.997 C 131 151.549, 131.675 152, 132.500 152 C 133.325 152, 134 152.398, 134 152.883 C 134 153.369, 134.926 154.009, 136.057 154.305 C 139.286 155.149, 137.805 152.771, 134.182 151.293 C 132.251 150.505, 131 150.389, 131 150.997 M 328.491 156.699 C 327.567 159.889, 326.333 163.082, 325.748 163.792 C 324.995 164.707, 325.003 165.403, 325.775 166.175 C 327.732 168.132, 329.860 166.265, 330.186 162.306 C 330.432 159.326, 330.880 158.564, 332.250 158.794 C 333.655 159.030, 334 158.356, 334 155.377 C 334 153.336, 333.704 151.963, 333.342 152.325 C 332.980 152.687, 332.119 152.514, 331.428 151.940 C 330.466 151.142, 329.778 152.256, 328.491 156.699 M 46 153.891 C 46 156.955, 47.762 160, 49.535 160 C 50.659 160, 51 161.397, 51 166 L 51 172 54.045 172 C 56.930 172, 57.061 171.829, 56.525 168.750 C 55.688 163.940, 57.806 160.685, 62.542 159.500 C 64.740 158.950, 68.330 157.423, 70.519 156.107 L 74.500 153.714 71.780 152.784 C 69.521 152.011, 68.458 152.311, 65.524 154.550 C 62.425 156.913, 61.307 157.190, 56.486 156.790 C 52.521 156.462, 50.289 155.680, 48.492 153.993 L 46 151.651 46 153.891 M 188.376 168.377 C 189.338 188.746, 190.123 190.003, 200.657 188.056 C 209.024 186.509, 212.650 183.657, 214.560 177.120 C 216.499 170.481, 215.733 165.025, 212.287 160.929 C 208.917 156.924, 204.491 155.219, 195.313 154.387 L 187.682 153.695 188.376 168.377 M 119 157.500 C 119 158.325, 119.450 159, 120 159 C 120.550 159, 121 158.325, 121 157.500 C 121 156.675, 120.550 156, 120 156 C 119.450 156, 119 156.675, 119 157.500 M 108.614 159.563 C 107.936 161.331, 110.536 167, 112.026 167 C 112.562 167, 113 164.975, 113 162.500 C 113 158.751, 112.684 158, 111.107 158 C 110.066 158, 108.944 158.704, 108.614 159.563 M 149.250 158.662 C 148.563 158.940, 148 159.813, 148 160.602 C 148 161.662, 148.721 161.865, 150.750 161.378 C 154.350 160.515, 154.746 160.084, 152.971 158.961 C 151.359 157.942, 151.090 157.920, 149.250 158.662 M 268 161.852 C 268 165.456, 263.111 185.179, 261.903 186.450 C 260.461 187.967, 260.859 191, 262.500 191 C 263.422 191, 264 190.063, 264 188.571 C 264 186.244, 266.285 183, 267.925 183 C 268.356 183, 269.922 184.125, 271.405 185.500 C 274.751 188.600, 275 188.601, 275 185.503 C 275 184.044, 273.515 181.362, 271.429 179.053 C 268.780 176.121, 267.941 174.376, 268.179 172.300 C 268.481 169.668, 268.781 169.504, 273.183 169.559 C 277.253 169.610, 277.749 169.399, 276.973 167.950 C 276.483 167.033, 274.972 165.556, 273.616 164.668 C 272.261 163.780, 270.862 162.141, 270.508 161.027 C 269.562 158.046, 268 158.560, 268 161.852 M 198 161 C 198 161.550, 198.477 162, 199.059 162 C 199.641 162, 199.840 161.550, 199.500 161 C 199.160 160.450, 198.684 160, 198.441 160 C 198.198 160, 198 160.450, 198 161 M 86.110 162.570 C 86.049 163.159, 84.425 165.480, 82.500 167.729 C 80.575 169.978, 79 172.056, 79 172.346 C 79 172.637, 80.564 172.620, 82.476 172.310 C 85.542 171.813, 86.070 172.053, 86.942 174.348 C 87.730 176.421, 87.432 178.022, 85.475 182.225 C 82.189 189.284, 82.277 190.320, 85.981 188.203 C 89.412 186.242, 92.291 187.307, 92.803 190.728 C 93.136 192.948, 98 198.060, 98 196.189 C 98 195.551, 96.685 192.435, 95.078 189.265 C 91.907 183.010, 88.468 172.966, 87.088 165.931 C 86.610 163.494, 86.170 161.982, 86.110 162.570 M 139.652 162.681 C 138.805 163.528, 140.028 171.189, 141.259 172.750 C 143.169 175.172, 144.033 173.964, 142.504 171.009 C 141.627 169.312, 141.218 166.979, 141.560 165.618 C 142.144 163.291, 140.923 161.411, 139.652 162.681 M 204.361 163.502 C 203.599 165.488, 204.768 170, 206.044 170 C 207.117 170, 209 165.818, 209 163.435 C 209 161.529, 205.096 161.586, 204.361 163.502 M 191.070 164.750 C 191.109 165.713, 191.527 167.400, 192 168.500 C 192.689 170.104, 192.873 169.758, 192.930 166.750 C 192.968 164.688, 192.550 163, 192 163 C 191.450 163, 191.032 163.787, 191.070 164.750 M 200 169 C 200 170.650, 200.432 172, 200.960 172 C 201.488 172, 201.825 170.651, 201.710 169.002 C 201.437 165.099, 200 165.097, 200 169 M 330 169.792 C 330 172.705, 324.545 178.757, 318.589 182.452 L 315.678 184.257 318.089 185.593 C 319.415 186.328, 321.310 186.945, 322.299 186.965 C 324.511 187.008, 327.947 194.138, 327.978 198.750 C 328.001 202.154, 325.131 206, 322.567 206 C 321.779 206, 320.847 206.907, 320.495 208.015 C 320.144 209.123, 319.408 209.752, 318.860 209.413 C 318.312 209.075, 318.100 208.181, 318.390 207.426 C 318.879 206.151, 315.110 202.556, 314.219 203.448 C 313.778 203.889, 315.664 210.163, 317.323 213.780 C 318.148 215.577, 317.908 217.010, 316.185 220.556 C 314.983 223.030, 314 225.692, 314 226.472 C 314 227.252, 312.796 228.478, 311.324 229.195 C 306.756 231.422, 307.166 233.178, 312.147 232.721 C 315.943 232.372, 316.539 231.994, 316.806 229.764 C 316.975 228.358, 317.987 226.416, 319.056 225.449 C 321.128 223.574, 321.616 219.019, 320.057 216.106 C 318.976 214.087, 322.090 208.023, 324.235 207.967 C 326.126 207.917, 329.343 204.854, 330.703 201.808 C 331.680 199.619, 331.619 198.544, 330.379 196.058 C 328.341 191.972, 328.913 189.411, 331.775 189.813 C 335.103 190.281, 334.632 186.843, 331 184.158 C 327.660 181.688, 327.079 179.781, 329.750 180.052 C 333.650 180.449, 334.461 180.057, 332.582 178.684 C 330.122 176.885, 330.922 173.477, 333.781 173.579 C 336.313 173.670, 336.461 173.107, 334.839 169.547 C 333.214 165.980, 330 166.142, 330 169.792 M 112.723 171.103 C 109.651 174.604, 109.288 176.513, 111.530 177.373 C 112.564 177.770, 113.411 177.073, 114.138 175.230 C 114.730 173.729, 115.617 171.719, 116.108 170.764 C 118.126 166.835, 116.307 167.018, 112.723 171.103 M 15 171 C 15 171.550, 15.450 172, 16 172 C 16.550 172, 17 171.550, 17 171 C 17 170.450, 16.550 170, 16 170 C 15.450 170, 15 170.450, 15 171 M 194.526 173.250 C 195.510 177.919, 196.694 178.672, 197.473 175.123 C 198.240 171.629, 197.569 170, 195.362 170 C 194.172 170, 193.990 170.708, 194.526 173.250 M 241.583 170.866 C 241.152 171.563, 241.070 172.403, 241.400 172.733 C 242.295 173.628, 243.271 172.312, 242.787 170.862 C 242.449 169.846, 242.213 169.846, 241.583 170.866 M 160 172.500 C 160 173.530, 160.655 174.020, 161.750 173.810 C 163.858 173.404, 163.725 171.629, 161.553 171.177 C 160.647 170.988, 160 171.539, 160 172.500 M 153 174.500 C 152.123 175.557, 152.018 176.418, 152.685 177.085 C 153.351 177.751, 154.123 177.557, 155 176.500 C 155.877 175.443, 155.982 174.582, 155.315 173.915 C 154.649 173.249, 153.877 173.443, 153 174.500 M 115.030 180.055 C 116.066 181.992, 115.977 182.543, 114.450 183.661 C 112.379 185.175, 113.126 186.549, 115.521 185.630 C 117.489 184.875, 117.192 178.881, 115.153 178.211 C 114.053 177.850, 114.030 178.188, 115.030 180.055 M 206.638 180.500 C 206.291 181.405, 206.633 182, 207.500 182 C 208.367 182, 208.709 181.405, 208.362 180.500 C 208.045 179.675, 207.657 179, 207.500 179 C 207.343 179, 206.955 179.675, 206.638 180.500 M 193.459 181.067 C 192.539 182.556, 193.606 183.365, 195.520 182.631 C 196.404 182.292, 196.847 181.561, 196.504 181.007 C 195.694 179.696, 194.289 179.723, 193.459 181.067 M 233.500 185 C 233.160 185.550, 233.359 186, 233.941 186 C 234.523 186, 235 185.550, 235 185 C 235 184.450, 234.802 184, 234.559 184 C 234.316 184, 233.840 184.450, 233.500 185 M 122 190.819 C 122 192.027, 123.897 193.436, 124.591 192.743 C 124.842 192.491, 124.362 191.716, 123.524 191.020 C 122.574 190.231, 122 190.155, 122 190.819 M 19.250 193.496 C 17.423 195.571, 17.721 197, 19.981 197 C 21.744 197, 21.896 197.479, 21.363 201.368 C 20.727 206.005, 21.645 207.457, 24.514 206.356 C 25.884 205.830, 26.084 204.926, 25.557 201.633 C 25.199 199.393, 24.538 197.321, 24.088 197.030 C 23.638 196.738, 22.954 195.488, 22.567 194.250 C 21.761 191.666, 21.011 191.496, 19.250 193.496 M 258.655 193.829 C 256.832 195.843, 256.430 197.470, 257.995 196.503 C 259.038 195.859, 261.347 192, 260.690 192 C 260.481 192, 259.565 192.823, 258.655 193.829 M 304.660 192.750 C 304.407 193.162, 306.224 195.257, 308.697 197.403 C 312.274 200.510, 313.374 201.020, 314.081 199.903 C 314.570 199.132, 314.976 197.938, 314.985 197.250 C 314.993 196.563, 315.788 195.981, 316.750 195.958 C 317.847 195.932, 317.195 195.201, 315 194 C 311.482 192.074, 305.514 191.352, 304.660 192.750 M 223.459 195.067 C 223.096 195.653, 223.005 196.339, 223.257 196.590 C 223.954 197.288, 227 195.907, 227 194.893 C 227 193.641, 224.257 193.776, 223.459 195.067 M 133 196.500 C 133 197.530, 133.655 198.020, 134.750 197.810 C 136.858 197.404, 136.725 195.629, 134.553 195.177 C 133.647 194.988, 133 195.539, 133 196.500 M 120 197 C 120 197.550, 120.702 198, 121.559 198 C 122.416 198, 122.840 197.550, 122.500 197 C 122.160 196.450, 121.459 196, 120.941 196 C 120.423 196, 120 196.450, 120 197 M 40.523 198.975 C 38.792 200.887, 38.818 200.980, 41.368 201.950 C 42.816 202.500, 44 203.412, 44 203.975 C 44 205.941, 46.056 204.982, 46.965 202.593 C 47.546 201.063, 48.991 199.941, 50.929 199.516 C 56.448 198.303, 55.301 197, 48.714 197 C 43.607 197, 41.948 197.400, 40.523 198.975 M 126.241 198.986 C 124.557 201.682, 124.680 202.188, 126.750 201.081 C 127.713 200.567, 129.316 199.891, 130.313 199.580 C 131.311 199.269, 131.847 198.561, 131.504 198.007 C 130.470 196.333, 127.560 196.874, 126.241 198.986 M 221 198.559 C 221 199.416, 221.457 199.835, 222.016 199.490 C 222.575 199.144, 222.774 198.443, 222.457 197.931 C 221.600 196.544, 221 196.802, 221 198.559 M 132 201.300 C 132 202.107, 131.100 203.002, 130 203.290 C 127.100 204.048, 127.543 205.625, 131.162 207.431 C 134.670 209.181, 135.875 208.971, 133.524 207.020 C 131.534 205.368, 131.569 203, 133.583 203 C 134.454 203, 134.989 202.466, 134.771 201.813 C 134.175 200.024, 132 199.622, 132 201.300 M 225.250 202.662 C 223.492 203.372, 223.688 206, 225.500 206 C 226.325 206, 227 205.812, 227 205.582 C 227 205.352, 227.273 204.452, 227.607 203.582 C 228.218 201.989, 227.557 201.732, 225.250 202.662 M 215 204.607 C 215 205.620, 214.449 206.003, 213.510 205.642 C 212.667 205.319, 210.951 206.140, 209.556 207.535 C 207.196 209.895, 204 210.863, 204 209.218 C 204 208.788, 202.875 208.343, 201.500 208.229 C 200.125 208.116, 199 208.487, 199 209.055 C 199 209.623, 199.563 210.015, 200.250 209.925 C 203.028 209.565, 203.791 210.085, 203.290 212 C 203.002 213.100, 203.258 214, 203.858 214 C 204.538 214, 204.724 215.132, 204.350 217 C 203.638 220.559, 205.779 221.185, 207.768 218 C 208.455 216.900, 209.721 216, 210.580 216 C 212.840 216, 221 211.021, 221 209.642 C 221 209, 219.988 208.026, 218.750 207.478 C 217.422 206.890, 216.620 205.768, 216.794 204.741 C 216.955 203.783, 216.618 203, 216.044 203 C 215.470 203, 215 203.723, 215 204.607 M 277.292 205.785 C 276.453 206.327, 277.142 207.411, 279.542 209.326 C 281.675 211.028, 282.979 212.931, 282.945 214.293 C 282.870 217.287, 277.983 220.936, 272.884 221.807 L 268.695 222.522 277.098 226.634 C 284.994 230.498, 291 232.630, 291 231.569 C 291 231.311, 289.650 229.100, 288 226.655 C 284.679 221.735, 284.236 218.879, 286.500 217 C 287.325 216.315, 288 215.188, 288 214.494 C 288 212.839, 290.607 212.225, 295.283 212.779 C 298.273 213.133, 299.399 213.871, 300.657 216.304 C 302.168 219.225, 302.318 219.286, 303.624 217.499 C 304.381 216.464, 305 214.129, 305 212.309 C 305 209.441, 304.665 209, 302.486 209 C 301.104 209, 299.052 208.438, 297.926 207.750 C 296.204 206.699, 295.671 206.779, 294.579 208.250 C 292.894 210.520, 290.576 210.466, 287.210 208.079 C 284.039 205.831, 279.017 204.669, 277.292 205.785 M 332.655 206.829 C 331.745 207.835, 331 209.022, 331 209.468 C 331 209.915, 330.212 210.883, 329.250 211.621 C 327.720 212.793, 327.689 213.088, 329 213.966 C 331.309 215.511, 332.716 215.194, 333.290 213 C 333.643 211.649, 334.654 211, 336.406 211 C 338.622 211, 339 210.562, 339 208 C 339 205.520, 338.594 205, 336.655 205 C 335.365 205, 333.565 205.823, 332.655 206.829 M 105 207 C 105 207.550, 105.450 208, 106 208 C 106.550 208, 107 207.550, 107 207 C 107 206.450, 106.550 206, 106 206 C 105.450 206, 105 206.450, 105 207 M 72.182 211.500 C 68.860 214.295, 66.932 214.587, 63.931 212.750 C 62.200 211.691, 61.732 211.776, 60.861 213.311 C 60.065 214.712, 59.141 214.970, 56.780 214.452 C 53.828 213.803, 53.752 213.875, 54.445 216.635 C 55.723 221.730, 57.068 222.417, 59.130 219.027 C 60.693 216.457, 61.584 216, 65.031 216 C 67.990 216, 69.746 216.655, 71.505 218.414 C 75.064 221.973, 75.496 225.108, 73.079 229.844 C 70.487 234.925, 70.491 235, 73.344 235 C 75.781 235, 88 227.385, 88 225.866 C 88 225.390, 87.190 225, 86.200 225 C 85.210 225, 83.973 224.588, 83.450 224.085 C 82.928 223.581, 81.375 223.019, 80 222.835 C 77.850 222.547, 77.458 221.920, 77.198 218.363 C 76.947 214.922, 77.325 213.890, 79.448 212.220 C 82.823 209.565, 82.670 209, 78.577 209 C 76.384 209, 74.085 209.899, 72.182 211.500 M 243.760 213.725 C 242.258 215.251, 239.802 217.593, 238.303 218.929 C 236.476 220.556, 236.002 221.501, 236.868 221.789 C 237.579 222.026, 239.485 220.951, 241.104 219.401 C 242.722 217.850, 245.183 216.113, 246.571 215.541 C 248.773 214.633, 248.929 214.273, 247.793 212.725 C 246.572 211.061, 246.317 211.125, 243.760 213.725 M 111.535 214.888 C 110.672 217.608, 110.619 217.555, 115 218.339 C 118.149 218.902, 118.317 218.824, 116.669 217.563 C 115.662 216.792, 114.257 215.366, 113.546 214.394 C 112.337 212.741, 112.207 212.773, 111.535 214.888 M 189 215.500 C 189 216.325, 189.675 217, 190.500 217 C 191.325 217, 192 216.325, 192 215.500 C 192 214.675, 191.325 214, 190.500 214 C 189.675 214, 189 214.675, 189 215.500 M 155.441 217.532 C 156.509 218.339, 158.309 218.986, 159.441 218.968 C 161.466 218.937, 161.468 218.912, 159.559 217.468 C 158.491 216.661, 156.691 216.014, 155.559 216.032 C 153.534 216.063, 153.532 216.088, 155.441 217.532 M 197.500 218 C 197.148 218.569, 198.009 219, 199.500 219 C 200.991 219, 201.852 218.569, 201.500 218 C 201.160 217.450, 200.260 217, 199.500 217 C 198.740 217, 197.840 217.450, 197.500 218 M 120 220.406 C 120 221.244, 120.934 222.430, 122.076 223.041 C 123.963 224.050, 124.053 223.968, 123.070 222.131 C 121.626 219.432, 120 218.518, 120 220.406 M 180.750 220.662 C 181.438 220.940, 182.563 220.940, 183.250 220.662 C 183.938 220.385, 183.375 220.158, 182 220.158 C 180.625 220.158, 180.063 220.385, 180.750 220.662 M 279.694 222.639 C 278.761 223.573, 279.888 225, 281.559 225 C 282.352 225, 283 224.325, 283 223.500 C 283 221.994, 280.889 221.444, 279.694 222.639 M 224 229 C 224 229.550, 224.450 230, 225 230 C 225.550 230, 226 229.550, 226 229 C 226 228.450, 225.550 228, 225 228 C 224.450 228, 224 228.450, 224 229 M 135.500 231 C 135.840 231.550, 136.568 232, 137.118 232 C 137.668 232, 137.840 231.550, 137.500 231 C 137.160 230.450, 136.432 230, 135.882 230 C 135.332 230, 135.160 230.450, 135.500 231 M 207.250 237.031 C 204.954 237.954, 204.138 240, 206.066 240 C 207.776 240, 211 238.017, 211 236.965 C 211 235.813, 210.247 235.826, 207.250 237.031 M 150 237.800 C 150 239.102, 152.286 241, 153.855 241 C 155.010 241, 154.937 240.588, 153.500 239 C 151.641 236.946, 150 236.383, 150 237.800 M 49.345 239.543 C 49.019 240.392, 49.004 241.337, 49.310 241.643 C 50.186 242.519, 52 241.034, 52 239.441 C 52 237.522, 50.092 237.596, 49.345 239.543 M 163 240.655 C 163 240.918, 164.188 242.691, 165.640 244.595 C 167.993 247.679, 168.456 247.897, 169.892 246.598 C 170.778 245.796, 172.740 244.669, 174.252 244.094 C 177.785 242.751, 177.784 241.037, 174.250 240.871 C 172.738 240.800, 169.588 240.615, 167.250 240.460 C 164.912 240.304, 163 240.392, 163 240.655 M 188.583 240.907 C 184.641 241.382, 183.949 241.732, 185.089 242.670 C 185.871 243.313, 187.714 244.141, 189.183 244.510 C 190.653 244.879, 192.132 245.902, 192.471 246.784 C 192.956 248.048, 193.501 247.706, 195.043 245.170 C 196.119 243.400, 197 241.513, 197 240.976 C 197 239.953, 196.528 239.949, 188.583 240.907 M 54.035 244.934 C 52.602 247.612, 52.716 248, 54.941 248 C 56.009 248, 57.160 248.450, 57.500 249 C 57.840 249.550, 59.891 250, 62.059 250 C 64.931 250, 66 249.585, 66 248.469 C 66 247.626, 65.213 246.648, 64.250 246.294 C 63.288 245.940, 62.140 245.054, 61.700 244.325 C 60.459 242.268, 55.240 242.683, 54.035 244.934 M 293.226 245.179 C 293.774 246.823, 296.760 248.573, 297.595 247.739 C 298.546 246.787, 296.085 244, 294.294 244 C 293.491 244, 293.010 244.530, 293.226 245.179 M 41.370 247.250 C 41.701 248.488, 41.979 249.838, 41.986 250.250 C 41.994 250.662, 42.900 251, 44 251 C 45.100 251, 46 251.450, 46 252 C 46 252.550, 48.475 253, 51.500 253 C 55.681 253, 57 252.646, 57 251.525 C 57 250.423, 56.250 250.200, 54.035 250.643 C 52.405 250.969, 49.480 250.937, 47.535 250.573 C 44.629 250.027, 44 249.473, 44 247.455 C 44 245.861, 43.433 245, 42.383 245 C 41.195 245, 40.926 245.596, 41.370 247.250 M 97.032 246.750 C 97.065 248.566, 99.242 252, 100.360 252 C 101.780 252, 100.923 246.184, 99.418 245.607 C 97.148 244.736, 96.997 244.808, 97.032 246.750 M 283.638 248.500 C 283.240 249.539, 283.706 250, 285.154 250 C 286.899 250, 287.039 249.752, 286 248.500 C 285.315 247.675, 284.633 247, 284.485 247 C 284.336 247, 283.955 247.675, 283.638 248.500 M 211.595 248.847 C 211.307 249.313, 212.335 250.904, 213.879 252.384 C 216.326 254.728, 217.216 254.989, 220.808 254.415 C 224.993 253.746, 229.108 249.803, 226.989 248.493 C 226.445 248.157, 226 248.568, 226 249.406 C 226 250.244, 225.097 251.413, 223.994 252.003 C 222.390 252.862, 221.119 252.568, 217.656 250.539 C 212.898 247.750, 212.365 247.601, 211.595 248.847 M 135 250.845 C 135 252.352, 138.425 254.827, 141.500 255.542 C 143.150 255.926, 145.063 256.947, 145.750 257.811 C 146.840 259.181, 147 259.078, 147 257.006 C 147 255.698, 147.978 253.587, 149.174 252.314 C 151.997 249.310, 149.443 249.077, 145.727 252 C 144.329 253.100, 142.472 254, 141.601 254 C 140.730 254, 139.455 253.100, 138.768 252 C 137.525 250.009, 135 249.235, 135 250.845 M 65.705 257.022 C 65.160 259.103, 64.680 259.236, 59.308 258.800 C 56.114 258.541, 54.474 258.506, 55.665 258.723 C 56.856 258.939, 58.082 259.771, 58.389 260.571 C 58.824 261.705, 58.370 261.880, 56.324 261.367 C 54.514 260.912, 53.916 261.055, 54.393 261.827 C 55.425 263.496, 61.749 266.273, 62.900 265.562 C 63.450 265.222, 64.386 265.854, 64.981 266.965 C 65.666 268.245, 67.520 269.219, 70.032 269.621 C 73.017 270.098, 74 270.719, 74 272.128 C 74 273.819, 74.871 274, 83 274 C 91.123 274, 92 273.818, 92 272.131 C 92 270.754, 92.964 270.105, 95.656 269.668 C 100.498 268.883, 101.278 269.537, 100.662 273.865 C 100.377 275.864, 100.369 276.712, 100.645 275.750 C 100.921 274.788, 101.564 274, 102.073 274 C 102.583 274, 103 272.695, 103 271.101 C 103 268.365, 102.731 268.178, 98.250 267.796 C 95.590 267.569, 93.157 267.855, 92.720 268.445 C 92.290 269.025, 92.224 268.274, 92.572 266.775 C 93.077 264.598, 92.596 263.442, 90.179 261.025 C 87.215 258.061, 84 257.011, 84 259.007 C 84 259.560, 85.125 260.991, 86.500 262.187 C 90.497 265.663, 89.674 266.769, 82.519 267.535 C 78.955 267.917, 75.383 267.977, 74.582 267.670 C 72.499 266.871, 70.666 259.831, 72.274 258.810 C 73.035 258.326, 72.476 258.025, 70.800 258.015 C 69.315 258.007, 67.693 257.274, 67.196 256.386 C 66.421 255.002, 66.209 255.092, 65.705 257.022 M 203 258.500 C 203 259.325, 203.675 260, 204.500 260 C 205.325 260, 206 259.325, 206 258.500 C 206 257.675, 205.325 257, 204.500 257 C 203.675 257, 203 257.675, 203 258.500 M 248.469 260.731 C 249.619 265.316, 249.573 265.499, 247.258 265.528 C 246.025 265.544, 245.013 265.881, 245.008 266.278 C 244.908 275.190, 244.842 275, 248 275 C 250.303 275, 251 274.549, 251 273.059 C 251 271.991, 251.450 270.840, 252 270.500 C 253.550 269.542, 253.179 262.701, 251.443 260.223 C 249.258 257.103, 247.628 257.381, 248.469 260.731 M 281.238 259.163 C 279.735 260.665, 279.610 263, 281.031 263 C 282.239 263, 283.346 260.538, 282.832 258.995 C 282.593 258.280, 282.065 258.335, 281.238 259.163 M 110.441 263.481 C 108.761 264.763, 108.702 265.097, 110 265.965 C 112.089 267.361, 113.444 266.725, 113.820 264.172 C 114.193 261.632, 113.146 261.418, 110.441 263.481 M 302.250 266.662 C 301.360 267.021, 301 270.226, 301 277.783 C 301 285.783, 301.283 288.117, 302.150 287.250 C 303.174 286.226, 304.840 265.882, 303.884 266.079 C 303.673 266.122, 302.938 266.385, 302.250 266.662 M 117.606 269.829 C 117.324 270.284, 118.498 272.195, 120.215 274.074 C 122.252 276.305, 123.487 277.039, 123.771 276.188 C 124.010 275.471, 123.484 274.087, 122.603 273.113 C 121.721 272.139, 121 270.815, 121 270.171 C 121 268.837, 118.382 268.573, 117.606 269.829 M 141.333 274.809 C 139.041 275.739, 136.829 276.837, 136.416 277.250 C 136.004 277.663, 134.392 278, 132.833 278 C 128.881 278, 129.299 279.533, 134.075 282.547 C 137.336 284.606, 138.440 284.880, 139.598 283.919 C 140.444 283.216, 140.790 281.915, 140.432 280.785 C 139.697 278.469, 142.413 276.078, 145.833 276.032 C 147.180 276.013, 147.999 275.498, 147.771 274.813 C 147.159 272.977, 145.848 272.977, 141.333 274.809 M 154.586 275.509 C 153.688 276.879, 152.289 278, 151.477 278 C 150.665 278, 150 278.418, 150 278.929 C 150 279.439, 149.293 280.564, 148.429 281.429 C 147 282.857, 147.081 283, 149.325 283 C 151.677 283, 158 277.186, 158 275.024 C 158 272.927, 156.101 273.196, 154.586 275.509 M 212.220 277.048 C 212.280 279.133, 212.722 279.937, 213.622 279.592 C 215.686 278.799, 216.245 280.763, 214.271 281.876 C 212.834 282.687, 212.741 283.118, 213.775 284.163 C 214.789 285.186, 215.452 285.199, 217.011 284.225 C 219.568 282.628, 220.338 282.677, 219.680 284.392 C 219.205 285.630, 222.503 287.320, 229.750 289.552 C 230.438 289.764, 231 290.626, 231 291.469 C 231 292.508, 231.977 293, 234.044 293 C 235.899 293, 237.024 292.512, 236.925 291.750 C 236.836 291.063, 236.816 288.587, 236.882 286.250 C 236.967 283.192, 237.421 282, 238.500 282 C 239.325 282, 240 281.550, 240 281 C 240 280.450, 239.373 280, 238.607 280 C 237.841 280, 236.955 279.325, 236.638 278.500 C 235.757 276.203, 233.365 276.701, 229.766 279.929 C 226.973 282.433, 226.754 282.940, 228.250 283.429 C 233.373 285.101, 233.440 285.307, 229.126 286.117 C 226.456 286.618, 224.022 286.547, 222.876 285.934 C 220.741 284.791, 220.385 283.058, 222.250 282.882 C 222.938 282.817, 222.150 282.476, 220.500 282.125 C 218.062 281.606, 217.326 280.785, 216.574 277.743 C 215.376 272.905, 212.088 272.380, 212.220 277.048 M 114.500 276 C 114.160 276.550, 114.359 277, 114.941 277 C 115.523 277, 116 276.550, 116 276 C 116 275.450, 115.802 275, 115.559 275 C 115.316 275, 114.840 275.450, 114.500 276 M 92.079 279.583 C 92.127 280.748, 92.364 280.985, 92.683 280.188 C 92.972 279.466, 92.936 278.603, 92.604 278.271 C 92.272 277.939, 92.036 278.529, 92.079 279.583 M 95 278.571 C 95 278.886, 95.675 279.818, 96.500 280.643 C 97.833 281.976, 98 281.913, 98 280.071 C 98 278.897, 97.351 278, 96.500 278 C 95.675 278, 95 278.257, 95 278.571 M 125.014 279.691 C 125.021 280.686, 125.307 282.546, 125.650 283.824 C 126.146 285.677, 126.752 286.028, 128.636 285.555 C 129.936 285.229, 131 285.086, 131 285.238 C 131 285.389, 131.418 286.972, 131.929 288.754 C 132.805 291.806, 132.741 291.932, 130.844 290.916 C 128 289.395, 127.170 290.731, 129.810 292.580 C 131.015 293.423, 132 294.988, 132 296.057 C 132 297.126, 132.625 298, 133.389 298 C 134.464 298, 134.711 296.506, 134.483 291.394 C 134.321 287.761, 133.696 284.296, 133.094 283.694 C 132.492 283.092, 132 282.927, 132 283.326 C 132 283.725, 130.635 283.346, 128.967 282.483 C 127.299 281.621, 126.182 280.515, 126.484 280.027 C 126.786 279.538, 126.575 278.856, 126.016 278.510 C 125.457 278.165, 125.006 278.696, 125.014 279.691 M 271.028 282.467 C 270.011 283.691, 270.006 284.302, 271 285.500 C 273.068 287.991, 275.174 287.344, 274.816 284.327 C 274.440 281.149, 272.793 280.340, 271.028 282.467 M 200.214 283.963 C 199.248 286.561, 199.700 290, 201.008 290 C 202.319 290, 203.114 285.026, 202.093 283.212 C 201.237 281.691, 201.028 281.775, 200.214 283.963 M 207.459 283.067 C 206.539 284.556, 207.606 285.365, 209.520 284.631 C 210.404 284.292, 210.847 283.561, 210.504 283.007 C 209.694 281.696, 208.289 281.723, 207.459 283.067 M 282 283.441 C 282 285.334, 283.432 286.155, 285.410 285.396 C 287.946 284.423, 287.296 282, 284.500 282 C 282.990 282, 282 282.571, 282 283.441 M 161 284 C 161 284.550, 161.702 285, 162.559 285 C 163.416 285, 163.840 284.550, 163.500 284 C 163.160 283.450, 162.459 283, 161.941 283 C 161.423 283, 161 283.450, 161 284 M 119 286.500 C 119 287.325, 119.675 288, 120.500 288 C 121.325 288, 122 287.325, 122 286.500 C 122 285.675, 121.325 285, 120.500 285 C 119.675 285, 119 285.675, 119 286.500 M 152.762 285.707 C 154.006 285.946, 155.806 285.937, 156.762 285.687 C 157.718 285.437, 156.700 285.241, 154.500 285.252 C 152.300 285.263, 151.518 285.468, 152.762 285.707 M 75 286.566 C 75 286.877, 75.476 288.021, 76.058 289.109 C 77.004 290.875, 77.777 291.014, 83.308 290.411 C 86.714 290.039, 89.623 289.634, 89.774 289.511 C 89.924 289.387, 89.763 288.547, 89.417 287.643 C 88.916 286.339, 87.364 286, 81.893 286 C 78.102 286, 75 286.255, 75 286.566 M 108 289.500 C 108 292.352, 108.376 293, 110.032 293 C 112.469 293, 114.564 288.690, 112.377 288.177 C 111.620 287.999, 111 287.436, 111 286.927 C 111 286.417, 110.325 286, 109.500 286 C 108.452 286, 108 287.056, 108 289.500 M 212.389 286.980 C 209.232 288.255, 208.320 292, 211.167 292 C 212.335 292, 216 288.209, 216 287 C 216 285.824, 215.258 285.820, 212.389 286.980 M 109 289 C 109 289.550, 109.450 290, 110 290 C 110.550 290, 111 289.550, 111 289 C 111 288.450, 110.550 288, 110 288 C 109.450 288, 109 288.450, 109 289 M 142.667 289.815 C 141.764 290.813, 140.508 293.111, 139.877 294.922 C 138.953 297.575, 138.999 298.385, 140.115 299.092 C 142.323 300.491, 142.805 300.186, 143.421 297 C 143.739 295.350, 144.261 292.650, 144.579 291 C 145.251 287.521, 144.926 287.320, 142.667 289.815 M 159 289.500 C 159 290.325, 159.436 291, 159.969 291 C 160.501 291, 160.678 290.325, 160.362 289.500 C 160.045 288.675, 159.609 288, 159.393 288 C 159.177 288, 159 288.675, 159 289.500 M 275 289 C 275 289.550, 275.900 290, 277 290 C 278.100 290, 279 289.550, 279 289 C 279 288.450, 278.100 288, 277 288 C 275.900 288, 275 288.450, 275 289 M 282.115 290 C 282.069 291.375, 282.467 293.175, 283 294 C 283.862 295.333, 283.960 295.333, 283.885 294 C 283.839 293.175, 283.440 291.375, 283 290 L 282.199 287.500 282.115 290 M 269.015 291.750 C 269.007 292.988, 269.450 294, 270 294 C 271.253 294, 271.253 292.939, 270 291 C 269.216 289.787, 269.028 289.931, 269.015 291.750 M 167.080 293.150 C 167.660 294.234, 168.803 294.981, 169.620 294.810 C 171.911 294.332, 171.245 292.576, 168.494 291.840 C 166.279 291.248, 166.134 291.382, 167.080 293.150 M 190.839 297.250 C 190.278 299.998, 192.130 301.217, 193.500 299 C 193.840 298.450, 193.674 298, 193.132 298 C 192.590 298, 191.979 297.212, 191.774 296.250 C 191.516 295.040, 191.227 295.349, 190.839 297.250 M 67.667 298.667 C 67.300 299.033, 67 299.798, 67 300.367 C 67 300.993, 67.466 300.934, 68.183 300.217 C 68.834 299.566, 69.134 298.801, 68.850 298.517 C 68.566 298.233, 68.033 298.300, 67.667 298.667 M 107.667 298.667 C 107.300 299.033, 107 299.798, 107 300.367 C 107 300.993, 107.466 300.934, 108.183 300.217 C 108.834 299.566, 109.134 298.801, 108.850 298.517 C 108.566 298.233, 108.033 298.300, 107.667 298.667 M 288.750 298.668 C 287.788 298.931, 287 299.555, 287 300.054 C 287 300.991, 288.875 301.521, 295.135 302.354 C 298.337 302.779, 298.710 302.608, 298.268 300.918 C 297.992 299.863, 297.032 298.994, 296.133 298.986 C 295.235 298.979, 293.600 298.796, 292.500 298.581 C 291.400 298.366, 289.712 298.405, 288.750 298.668 M 250 300.059 C 250 300.641, 250.450 300.840, 251 300.500 C 251.550 300.160, 252 299.684, 252 299.441 C 252 299.198, 251.550 299, 251 299 C 250.450 299, 250 299.477, 250 300.059 M 266.589 299.744 C 265.255 301.079, 266.168 302, 268.826 302 C 272.095 302, 275.429 305.196, 276.388 309.250 C 277.180 312.601, 279 312.892, 279 309.667 C 279 304.736, 269.329 297.005, 266.589 299.744 M 218 302.382 C 218 303.207, 218.450 304.160, 219 304.500 C 219.550 304.840, 220 304.443, 220 303.618 C 220 302.793, 219.550 301.840, 219 301.500 C 218.450 301.160, 218 301.557, 218 302.382 M 79.809 303.813 C 76.224 305.986, 73.425 312, 76 312 C 76.550 312, 77 311.190, 77 310.200 C 77 306.256, 81.378 304.848, 86.453 307.161 C 89.289 308.453, 89.689 309.522, 87.632 310.311 C 86.880 310.600, 86.042 311.998, 85.771 313.418 C 85.092 316.969, 87.314 316.772, 89.968 313.045 C 91.157 311.375, 92.663 310.317, 93.432 310.612 C 94.180 310.899, 95.519 310.096, 96.408 308.828 C 97.297 307.559, 98.767 306.517, 99.676 306.511 C 100.584 306.505, 101.517 305.938, 101.747 305.250 C 102.313 303.564, 99.950 303.723, 97.559 305.532 C 94.893 307.548, 93.667 307.393, 89.405 304.500 C 85.193 301.642, 83.583 301.527, 79.809 303.813 M 217.418 309.472 C 216.586 312.785, 217.849 321.212, 219.064 320.460 C 220.304 319.694, 220.274 308.287, 219.029 307.518 C 218.495 307.188, 217.770 308.067, 217.418 309.472 M 264 313.500 C 264 314.875, 264.450 316, 265 316 C 265.550 316, 266 314.875, 266 313.500 C 266 312.125, 265.550 311, 265 311 C 264.450 311, 264 312.125, 264 313.500 M 160.905 312.750 C 160.254 317.899, 160.700 322.399, 161.902 322.800 C 162.996 323.165, 163.160 322.548, 162.648 319.991 C 162.270 318.098, 162.453 316.159, 163.082 315.401 C 163.682 314.678, 163.882 313.618, 163.527 313.044 C 162.782 311.839, 161.045 311.644, 160.905 312.750 M 184 313 C 184 313.550, 184.423 314, 184.941 314 C 185.459 314, 186.160 313.550, 186.500 313 C 186.840 312.450, 186.416 312, 185.559 312 C 184.702 312, 184 312.450, 184 313 M 91.447 316.102 C 90.090 318.726, 89.386 319.137, 86.878 318.769 C 85.246 318.529, 83.680 318.708, 83.397 319.167 C 82.492 320.631, 79.137 320.060, 78.013 318.250 C 77.003 316.624, 76.947 316.635, 77.213 318.394 C 77.371 319.436, 78.737 321.210, 80.248 322.338 C 82.907 324.321, 83.040 324.328, 84.346 322.541 C 85.089 321.525, 86.212 321.013, 86.842 321.403 C 88.450 322.396, 95 317.160, 95 314.881 C 95 312.025, 93.243 312.629, 91.447 316.102 M 278.015 317.250 C 278.024 319.038, 278.467 321.175, 279 322 C 279.736 323.138, 279.973 322.716, 279.985 320.250 C 280.001 316.865, 280.822 316.222, 282.712 318.113 C 283.324 318.724, 284.388 319.037, 285.076 318.808 C 286.098 318.467, 279.935 314, 278.443 314 C 278.199 314, 278.007 315.462, 278.015 317.250 M 195.683 317.650 C 194.659 318.675, 194.860 323, 195.933 323 C 197.292 323, 198.358 318.958, 197.283 317.883 C 196.779 317.379, 196.059 317.274, 195.683 317.650 M 240 319.477 C 240 320.859, 243.721 322.261, 244.414 321.140 C 244.642 320.770, 243.743 319.954, 242.415 319.328 C 240.521 318.434, 240 318.466, 240 319.477 M 263 319.941 C 263 321.903, 264.691 323.643, 265.658 322.675 C 266.443 321.890, 265.008 318, 263.933 318 C 263.420 318, 263 318.873, 263 319.941 M 142.250 320.220 C 139.800 321.402, 139.403 322.513, 141.063 323.539 C 142.160 324.217, 146 321.344, 146 319.845 C 146 318.769, 145.066 318.862, 142.250 320.220 M 110.186 321.109 C 107.841 321.994, 108.015 324, 110.437 324 C 112.079 324, 114.384 321.348, 113.299 320.706 C 112.859 320.447, 111.459 320.628, 110.186 321.109 M 66.229 326.188 C 66.447 326.841, 67.160 327.553, 67.813 327.771 C 68.544 328.015, 68.767 327.557, 68.394 326.584 C 67.696 324.766, 65.629 324.388, 66.229 326.188 M 95.200 328.200 C 93.394 330.006, 93.757 332, 95.893 332 C 97.860 332, 99.423 329.494, 98.444 327.910 C 97.680 326.673, 96.633 326.767, 95.200 328.200 M 169.233 329.145 C 165.361 331.602, 159.221 333.166, 158.436 331.896 C 157.500 330.382, 154.973 330.902, 154.292 332.750 C 153.936 333.712, 153.163 334.831, 152.573 335.235 C 151.983 335.639, 153.473 335.976, 155.884 335.985 C 160.791 336.002, 168 334.132, 168 332.842 C 168 332.379, 168.914 332, 170.031 332 C 171.149 332, 172.316 331.340, 172.626 330.533 C 173.737 327.637, 172.443 327.107, 169.233 329.145 M 185 328.452 C 185 331.558, 186.118 332.700, 188.681 332.210 C 190.417 331.878, 191.563 332.254, 192.181 333.358 C 193.333 335.418, 195.371 335.463, 197.028 333.467 C 198.159 332.104, 198.541 332.159, 200.465 333.967 C 203.293 336.624, 207 336.676, 207 334.059 C 207 331.204, 205.241 330.558, 198.055 330.771 C 193.201 330.914, 190.782 330.479, 188.300 329.015 C 185.760 327.516, 185 327.386, 185 328.452 M 231 327.826 C 231 328.918, 233.380 330, 235.782 330 C 237.858 330, 236.266 328.456, 233.250 327.545 C 232.007 327.169, 231 327.295, 231 327.826 M 248.750 328.080 C 245.985 329.691, 246.710 331.008, 250 330.350 C 252.474 329.855, 253.005 330.079, 253.030 331.625 C 253.059 333.413, 253.110 333.416, 254.109 331.698 C 254.862 330.405, 254.819 329.486, 253.957 328.448 C 252.556 326.761, 251.182 326.664, 248.750 328.080 M 299 327.883 C 299 328.369, 298.100 329.002, 297 329.290 C 295.900 329.577, 295 330.319, 295 330.938 C 295 332.161, 297.774 333.559, 298.587 332.746 C 299.318 332.016, 300.132 327, 299.520 327 C 299.234 327, 299 327.398, 299 327.883 M 129.753 329.836 C 129.170 332.064, 122.522 333.307, 119.882 331.681 C 118.993 331.133, 117.418 331.013, 116.382 331.414 C 114.684 332.072, 114.656 332.258, 116.101 333.321 C 117.654 334.465, 120.659 334.614, 133.750 334.198 C 140.446 333.986, 142.024 332.655, 136.816 331.613 C 135.064 331.263, 132.871 330.289, 131.943 329.448 C 130.417 328.067, 130.206 328.104, 129.753 329.836 M 209 329.345 C 209 331.632, 212.499 334, 215.878 334 C 218.884 334, 225 331.602, 225 330.423 C 225 330.134, 222.513 329.998, 219.472 330.121 C 216.283 330.250, 213.449 329.849, 212.772 329.172 C 211.188 327.588, 209 327.688, 209 329.345 M 263.097 329.383 C 262.208 330.454, 262.312 330.906, 263.556 331.383 C 265.879 332.275, 266 332.206, 266 330 C 266 327.675, 264.737 327.407, 263.097 329.383 M 70 329.845 C 70 330.310, 70.841 331.451, 71.870 332.382 C 74.250 334.537, 91.026 335.272, 91.730 333.253 C 92.058 332.311, 90.211 332.066, 84.196 332.253 C 77.775 332.452, 75.851 332.160, 74.285 330.750 C 72.231 328.900, 70 328.428, 70 329.845 M 148.406 330.152 C 147.609 331.442, 150.817 334.231, 152.150 333.407 C 153.162 332.782, 151.337 329, 150.024 329 C 149.526 329, 148.798 329.518, 148.406 330.152 M 228.200 331.200 C 227.540 331.860, 227 332.760, 227 333.200 C 227 334.392, 229.779 334.167, 230.554 332.913 C 231.584 331.247, 229.598 329.802, 228.200 331.200 M 238.250 330.667 C 235.999 331.567, 236.822 334.164, 239.250 333.820 C 240.488 333.644, 241.500 332.863, 241.500 332.083 C 241.500 330.502, 240.141 329.910, 238.250 330.667 M 280 331 C 280 331.550, 280.450 332, 281 332 C 281.550 332, 282 331.550, 282 331 C 282 330.450, 281.550 330, 281 330 C 280.450 330, 280 330.450, 280 331 M 102 332.465 C 102 333.333, 102.869 334, 104 334 C 105.100 334, 106 333.791, 106 333.535 C 106 333.280, 105.100 332.589, 104 332 C 102.404 331.146, 102 331.240, 102 332.465 M 144.639 331.694 C 143.444 332.889, 143.994 335, 145.500 335 C 146.325 335, 147 334.352, 147 333.559 C 147 331.888, 145.573 330.761, 144.639 331.694 M 175.625 331.798 C 175.354 332.237, 175.496 333.185, 175.941 333.905 C 176.973 335.575, 181 334.403, 181 332.433 C 181 330.916, 176.498 330.384, 175.625 331.798 M 108.565 332.895 C 108.260 333.388, 108.571 333.996, 109.256 334.248 C 111.009 334.892, 113.124 334.009, 112.447 332.915 C 111.723 331.743, 109.285 331.731, 108.565 332.895 M 105.250 356.750 C 126.013 356.901, 159.988 356.901, 180.750 356.750 C 201.513 356.599, 184.525 356.475, 143 356.475 C 101.475 356.475, 84.488 356.599, 105.250 356.750" stroke="none" fill="url(#gold)" fill-rule="evenodd"/>
</svg>